<svg xmlns="http://www.w3.org/2000/svg" xmlns:xlink="http://www.w3.org/1999/xlink" width="512" zoomAndPan="magnify" viewBox="0 0 384 383.999986" height="512" preserveAspectRatio="xMidYMid meet" version="1.0"><defs><g/><clipPath id="1068b54abe"><path d="M 6 85 L 377 85 L 377 300 L 6 300 Z M 6 85 " clip-rule="nonzero"/></clipPath><clipPath id="b2fa0a2c88"><path d="M 0.785156 86.371094 L 344.261719 35.316406 L 383.296875 297.933594 L 39.820312 348.988281 Z M 0.785156 86.371094 " clip-rule="nonzero"/></clipPath><clipPath id="6dddca2ecf"><path d="M 0.785156 86.371094 L 344.261719 35.316406 L 383.296875 297.933594 L 39.820312 348.988281 Z M 0.785156 86.371094 " clip-rule="nonzero"/></clipPath></defs><g fill="#f13d84" fill-opacity="1"><g transform="translate(39.77587, 253.539413)"><g><path d="M -1.25 -40.40625 L -4 -39.984375 L -14.953125 -110.15625 L 74.890625 -124.1875 L 85.84375 -54.015625 L 83.09375 -53.578125 C 81.851562 -61.484375 79.878906 -68.582031 77.171875 -74.875 C 74.472656 -81.164062 71.285156 -86.703125 67.609375 -91.484375 C 63.929688 -96.273438 60.054688 -100.285156 55.984375 -103.515625 C 51.921875 -106.742188 47.914062 -109.242188 43.96875 -111.015625 C 40.019531 -112.796875 36.367188 -113.84375 33.015625 -114.15625 C 34.015625 -107.71875 35.503906 -101.03125 37.484375 -94.09375 C 39.472656 -87.164062 41.804688 -80.296875 44.484375 -73.484375 C 47.171875 -66.671875 50.023438 -60.066406 53.046875 -53.671875 C 56.066406 -47.273438 59.125 -41.378906 62.21875 -35.984375 C 65.3125 -30.585938 68.300781 -25.84375 71.1875 -21.75 C 74.070312 -17.65625 76.695312 -14.519531 79.0625 -12.34375 L 15.703125 -2.453125 C 17.296875 -5.253906 18.84375 -9.039062 20.34375 -13.8125 C 21.84375 -18.582031 23.242188 -24.007812 24.546875 -30.09375 C 25.847656 -36.175781 26.945312 -42.71875 27.84375 -49.71875 C 28.738281 -56.726562 29.378906 -63.878906 29.765625 -71.171875 C 30.160156 -78.472656 30.226562 -85.722656 29.96875 -92.921875 C 29.707031 -100.128906 29.003906 -106.9375 27.859375 -113.34375 C 24.835938 -112.039062 21.71875 -109.941406 18.5 -107.046875 C 15.28125 -104.148438 12.222656 -100.539062 9.328125 -96.21875 C 6.441406 -91.90625 3.976562 -86.910156 1.9375 -81.234375 C -0.101562 -75.554688 -1.453125 -69.304688 -2.109375 -62.484375 C -2.773438 -55.671875 -2.488281 -48.3125 -1.25 -40.40625 Z M -1.25 -40.40625 "/></g></g></g><g fill="#f13d84" fill-opacity="1"><g transform="translate(129.17964, 239.178375)"><g><path d="M 1.59375 -36.125 C 1.59375 -39.601562 2.347656 -42.9375 3.859375 -46.125 C 5.367188 -49.320312 7.4375 -52.179688 10.0625 -54.703125 C 12.6875 -57.222656 15.703125 -59.113281 19.109375 -60.375 C 14.359375 -64.300781 10.476562 -68.757812 7.46875 -73.75 C 4.457031 -78.75 2.945312 -84.46875 2.9375 -90.90625 C 2.925781 -93.132812 3.285156 -95.4375 4.015625 -97.8125 C 4.753906 -100.1875 5.769531 -102.390625 7.0625 -104.421875 C 8.363281 -106.460938 9.804688 -108.097656 11.390625 -109.328125 C 12.984375 -110.554688 14.671875 -111.171875 16.453125 -111.171875 L 88.8125 -111.3125 C 89.476562 -110.125 90 -108.914062 90.375 -107.6875 C 90.75 -106.46875 90.9375 -105.117188 90.9375 -103.640625 C 90.945312 -100.828125 90.320312 -98.304688 89.0625 -96.078125 C 87.800781 -93.859375 86.171875 -91.988281 84.171875 -90.46875 C 82.179688 -88.945312 80.09375 -87.773438 77.90625 -86.953125 C 75.71875 -86.128906 73.695312 -85.71875 71.84375 -85.71875 C 67.695312 -85.707031 63.625 -86.398438 59.625 -87.796875 C 55.625 -89.203125 51.75 -90.9375 48 -93 C 44.25 -95.070312 40.613281 -97.125 37.09375 -99.15625 C 33.570312 -101.1875 30.179688 -102.898438 26.921875 -104.296875 C 23.660156 -105.703125 20.546875 -106.398438 17.578125 -106.390625 C 16.835938 -106.390625 16.222656 -105.984375 15.734375 -105.171875 C 15.253906 -104.359375 15.015625 -103.65625 15.015625 -103.0625 C 15.023438 -100.46875 16.140625 -98.191406 18.359375 -96.234375 C 20.585938 -94.273438 23.59375 -92.5 27.375 -90.90625 C 31.164062 -89.320312 35.394531 -87.753906 40.0625 -86.203125 C 44.738281 -84.660156 49.59375 -82.945312 54.625 -81.0625 C 59.664062 -79.1875 64.523438 -76.992188 69.203125 -74.484375 C 73.878906 -71.984375 78.109375 -69.007812 81.890625 -65.5625 C 85.671875 -62.125 88.675781 -58.054688 90.90625 -53.359375 C 93.144531 -48.660156 94.269531 -43.125 94.28125 -36.75 C 94.300781 -29.488281 92.628906 -22.925781 89.265625 -17.0625 C 85.910156 -11.207031 80.84375 -6.566406 74.0625 -3.140625 C 67.289062 0.273438 58.71875 2.03125 48.34375 2.125 C 42.488281 2.132812 36.78125 1.347656 31.21875 -0.234375 C 25.664062 -1.816406 20.660156 -4.210938 16.203125 -7.421875 C 11.753906 -10.628906 8.210938 -14.640625 5.578125 -19.453125 C 2.941406 -24.265625 1.613281 -29.820312 1.59375 -36.125 Z M 79.984375 -16.609375 C 79.972656 -19.710938 78.722656 -22.597656 76.234375 -25.265625 C 73.753906 -27.929688 70.414062 -30.484375 66.21875 -32.921875 C 62.03125 -35.359375 57.414062 -37.847656 52.375 -40.390625 C 47.332031 -42.941406 42.195312 -45.640625 36.96875 -48.484375 C 31.738281 -51.328125 26.828125 -54.484375 22.234375 -57.953125 C 22.304688 -55.503906 22.972656 -52.578125 24.234375 -49.171875 C 25.503906 -45.765625 27.234375 -42.171875 29.421875 -38.390625 C 31.617188 -34.617188 34.179688 -30.9375 37.109375 -27.34375 C 40.046875 -23.757812 43.257812 -20.488281 46.75 -17.53125 C 50.238281 -14.582031 53.875 -12.238281 57.65625 -10.5 C 61.4375 -8.769531 65.289062 -7.910156 69.21875 -7.921875 C 72.476562 -7.921875 75.085938 -8.789062 77.046875 -10.53125 C 79.003906 -12.28125 79.984375 -14.304688 79.984375 -16.609375 Z M 79.984375 -16.609375 "/></g></g></g><g fill="#f13d84" fill-opacity="1"><g transform="translate(220.341734, 238.552512)"><g><path d="M 53.046875 10.421875 C 45.273438 9.222656 38.441406 6.707031 32.546875 2.875 C 26.660156 -0.957031 21.820312 -5.785156 18.03125 -11.609375 C 14.25 -17.441406 11.671875 -24.023438 10.296875 -31.359375 C 8.921875 -38.703125 8.863281 -46.472656 10.125 -54.671875 C 11.382812 -62.867188 13.773438 -70.253906 17.296875 -76.828125 C 20.816406 -83.410156 25.257812 -88.910156 30.625 -93.328125 C 36 -97.753906 42.070312 -100.90625 48.84375 -102.78125 C 55.613281 -104.65625 62.882812 -104.992188 70.65625 -103.796875 C 77.6875 -102.710938 83.675781 -101.191406 88.625 -99.234375 C 93.570312 -97.273438 97.585938 -95.25 100.671875 -93.15625 C 103.753906 -91.070312 106.007812 -89.316406 107.4375 -87.890625 C 108.875 -86.472656 109.59375 -85.765625 109.59375 -85.765625 L 80.46875 -31.125 L 79.375 -31.28125 C 79.53125 -33.726562 79.585938 -37 79.546875 -41.09375 C 79.503906 -45.1875 79.238281 -49.6875 78.75 -54.59375 C 78.269531 -59.5 77.53125 -64.429688 76.53125 -69.390625 C 75.539062 -74.347656 74.210938 -78.957031 72.546875 -83.21875 C 70.878906 -87.488281 68.800781 -91.03125 66.3125 -93.84375 C 63.820312 -96.664062 60.851562 -98.34375 57.40625 -98.875 C 53.675781 -99.445312 50.460938 -98.160156 47.765625 -95.015625 C 45.066406 -91.878906 43.265625 -87.378906 42.359375 -81.515625 C 40.859375 -71.773438 40.953125 -62.894531 42.640625 -54.875 C 44.328125 -46.851562 47.109375 -39.863281 50.984375 -33.90625 C 54.867188 -27.957031 59.398438 -23.175781 64.578125 -19.5625 C 69.765625 -15.945312 75.097656 -13.675781 80.578125 -12.75 C 83.359375 -12.320312 86.070312 -12.1875 88.71875 -12.34375 C 91.363281 -12.5 93.710938 -13.035156 95.765625 -13.953125 C 97.828125 -14.878906 99.25 -16.179688 100.03125 -17.859375 C 100.300781 -12.867188 99.195312 -8.410156 96.71875 -4.484375 C 94.25 -0.554688 90.804688 2.695312 86.390625 5.28125 C 81.984375 7.863281 76.914062 9.609375 71.1875 10.515625 C 65.457031 11.429688 59.410156 11.398438 53.046875 10.421875 Z M 53.046875 10.421875 "/></g></g></g><g clip-path="url(#1068b54abe)"><g clip-path="url(#b2fa0a2c88)"><g clip-path="url(#6dddca2ecf)"><path fill="#4a0018" d="M 363.734375 287.664062 C 360.261719 285.894531 354.273438 284.316406 350.710938 284.621094 L 18.839844 115.328125 C 11.519531 111.59375 8.605469 102.601562 12.339844 95.285156 C 14.761719 90.535156 18.601562 89.0625 24.433594 90.648438 C 27.253906 91.417969 30.078125 92.894531 32.8125 95.050781 L 90.679688 140.609375 C 91.730469 141.339844 92.71875 142.332031 93.765625 143.382812 C 96.308594 145.9375 99.191406 148.832031 103.558594 148.011719 L 121.851562 144.582031 C 127.601562 143.503906 133.320312 146.460938 135.769531 151.773438 L 140.953125 163.035156 C 144.816406 171.421875 153.84375 176.027344 162.910156 174.238281 L 174.953125 171.847656 C 180.75 170.699219 186.523438 173.644531 189 179.015625 L 194.125 190.15625 C 197.996094 198.554688 207.027344 203.15625 216.089844 201.355469 L 228.109375 198.96875 C 233.90625 197.816406 239.6875 200.761719 242.160156 206.132812 L 247.289062 217.277344 C 251.152344 225.671875 260.183594 230.28125 269.25 228.480469 L 281.28125 226.089844 C 287.078125 224.941406 292.859375 227.890625 295.332031 233.257812 L 301.566406 246.804688 C 304.785156 253.808594 311.847656 258.355469 319.558594 258.386719 L 353.8125 258.539062 C 356.808594 260.472656 362.941406 261.835938 366.882812 261.851562 C 372.253906 261.871094 376.621094 259.398438 376.632812 256.328125 C 376.644531 253.257812 372.296875 250.75 366.921875 250.730469 C 363.0625 250.714844 357.085938 251.984375 354.015625 253.835938 L 319.582031 253.683594 C 313.691406 253.65625 308.300781 250.183594 305.839844 244.835938 L 299.605469 231.289062 C 296.21875 223.933594 288.308594 219.898438 280.363281 221.476562 L 268.332031 223.867188 C 261.410156 225.242188 254.519531 221.71875 251.566406 215.3125 L 246.4375 204.167969 C 243.050781 196.8125 235.132812 192.78125 227.191406 194.355469 L 215.171875 196.742188 C 208.25 198.117188 201.351562 194.601562 198.402344 188.191406 L 193.273438 177.050781 C 189.886719 169.691406 181.976562 165.660156 174.035156 167.234375 L 161.992188 169.621094 C 155.074219 170.996094 148.179688 167.476562 145.226562 161.070312 L 140.042969 149.808594 C 136.695312 142.535156 128.855469 138.484375 120.984375 139.957031 L 102.695312 143.386719 C 100.859375 143.730469 99.375 142.347656 97.101562 140.066406 C 95.953125 138.910156 94.765625 137.71875 93.476562 136.828125 L 35.726562 91.351562 C 32.484375 88.808594 29.105469 87.039062 25.667969 86.109375 C 17.664062 83.933594 11.605469 86.367188 8.148438 93.144531 C 3.234375 102.777344 7.074219 114.609375 16.703125 119.519531 L 348.570312 288.8125 C 350.414062 291.878906 355.207031 295.800781 358.683594 297.570312 C 363.46875 300.015625 368.480469 299.777344 369.875 297.039062 C 371.273438 294.304688 368.523438 290.109375 363.734375 287.664062 Z M 363.734375 287.664062 " fill-opacity="1" fill-rule="nonzero"/></g></g></g><g fill="#f13d84" fill-opacity="1"><g transform="translate(97.298177, 242.454312)"><g/></g></g><g fill="#f13d84" fill-opacity="1"><g transform="translate(127.271704, 238.347837)"><g><path d="M 2.640625 -36.1875 C 2.734375 -39.675781 3.582031 -43 5.1875 -46.15625 C 6.800781 -49.3125 8.960938 -52.117188 11.671875 -54.578125 C 14.378906 -57.046875 17.457031 -58.863281 20.90625 -60.03125 C 16.25 -64.082031 12.484375 -68.660156 9.609375 -73.765625 C 6.734375 -78.867188 5.382812 -84.65625 5.5625 -91.125 C 5.613281 -93.351562 6.039062 -95.644531 6.84375 -98 C 7.65625 -100.363281 8.738281 -102.546875 10.09375 -104.546875 C 11.445312 -106.546875 12.9375 -108.140625 14.5625 -109.328125 C 16.195312 -110.515625 17.910156 -111.082031 19.703125 -111.03125 L 92.28125 -109.109375 C 92.914062 -107.898438 93.398438 -106.675781 93.734375 -105.4375 C 94.078125 -104.207031 94.226562 -102.847656 94.1875 -101.359375 C 94.113281 -98.535156 93.410156 -96.023438 92.078125 -93.828125 C 90.753906 -91.640625 89.070312 -89.804688 87.03125 -88.328125 C 84.988281 -86.859375 82.859375 -85.742188 80.640625 -84.984375 C 78.421875 -84.222656 76.378906 -83.867188 74.515625 -83.921875 C 70.359375 -84.023438 66.296875 -84.835938 62.328125 -86.359375 C 58.359375 -87.890625 54.519531 -89.742188 50.8125 -91.921875 C 47.113281 -94.097656 43.523438 -96.253906 40.046875 -98.390625 C 36.578125 -100.535156 33.222656 -102.351562 29.984375 -103.84375 C 26.753906 -105.34375 23.65625 -106.132812 20.6875 -106.21875 C 19.945312 -106.226562 19.320312 -105.832031 18.8125 -105.03125 C 18.3125 -104.238281 18.050781 -103.546875 18.03125 -102.953125 C 17.96875 -100.347656 19.019531 -98.03125 21.1875 -96 C 23.363281 -93.976562 26.320312 -92.113281 30.0625 -90.40625 C 33.8125 -88.707031 38.007812 -87.015625 42.65625 -85.328125 C 47.300781 -83.640625 52.125 -81.78125 57.125 -79.75 C 62.132812 -77.71875 66.945312 -75.375 71.5625 -72.71875 C 76.175781 -70.070312 80.332031 -66.972656 84.03125 -63.421875 C 87.726562 -59.867188 90.628906 -55.703125 92.734375 -50.921875 C 94.835938 -46.140625 95.804688 -40.550781 95.640625 -34.15625 C 95.441406 -26.875 93.570312 -20.34375 90.03125 -14.5625 C 86.5 -8.78125 81.28125 -4.269531 74.375 -1.03125 C 67.476562 2.207031 58.832031 3.726562 48.4375 3.53125 C 42.5625 3.375 36.851562 2.421875 31.3125 0.671875 C 25.78125 -1.078125 20.832031 -3.628906 16.46875 -6.984375 C 12.101562 -10.335938 8.664062 -14.460938 6.15625 -19.359375 C 3.644531 -24.253906 2.472656 -29.863281 2.640625 -36.1875 Z M 80.703125 -14.359375 C 80.785156 -17.484375 79.617188 -20.414062 77.203125 -23.15625 C 74.785156 -25.894531 71.507812 -28.546875 67.375 -31.109375 C 63.25 -33.671875 58.691406 -36.300781 53.703125 -39 C 48.722656 -41.707031 43.644531 -44.5625 38.46875 -47.5625 C 33.300781 -50.5625 28.460938 -53.875 23.953125 -57.5 C 23.960938 -55.039062 24.550781 -52.082031 25.71875 -48.625 C 26.894531 -45.175781 28.53125 -41.523438 30.625 -37.671875 C 32.71875 -33.828125 35.179688 -30.0625 38.015625 -26.375 C 40.859375 -22.6875 43.988281 -19.3125 47.40625 -16.25 C 50.820312 -13.1875 54.398438 -10.734375 58.140625 -8.890625 C 61.890625 -7.046875 65.726562 -6.070312 69.65625 -5.96875 C 72.925781 -5.875 75.566406 -6.671875 77.578125 -8.359375 C 79.597656 -10.054688 80.640625 -12.054688 80.703125 -14.359375 Z M 80.703125 -14.359375 "/></g></g></g></svg>