<svg id="Capa_1" data-name="Capa 1" xmlns="http://www.w3.org/2000/svg" viewBox="0 0 65.48 86.49"><defs><style>.cls-1{fill:#f0e7db;}</style></defs><path class="cls-1" d="M17.28,22.31c-.43-5.64.93-10.55,5.23-14.32a14.85,14.85,0,0,1,9.86-3.83,15.07,15.07,0,0,1,12,5.36c3.2,3.64,4.05,8,3.72,12.79h2.75a8.25,8.25,0,0,1,8.57,8.1q1.08,16.5,2.2,33c.22,3.37.45,6.75.67,10.12a8.12,8.12,0,0,1-8,8.77c-5.74.08-11.48,0-17.21,0q-12.79,0-25.58,0c-4.12,0-7.43-2.43-8.19-6.3a20.85,20.85,0,0,1-.07-5.24C3.61,65.13,4,59.49,4.4,53.85Q5,44.21,5.7,34.55c.11-1.64.15-3.29.36-4.93a8.1,8.1,0,0,1,8.23-7.31C15.22,22.29,16.16,22.31,17.28,22.31Zm25.43-.06c0-1,0-1.9,0-2.81a10,10,0,0,0-12.15-9.6c-5,1.14-8.69,5.58-7.77,12.41ZM32.63,49.63c6.27-.28,10.9-3.05,13.86-8.52a2.74,2.74,0,1,0-4.84-2.52,9.63,9.63,0,0,1-8.92,5.51,9.67,9.67,0,0,1-9-5.54,2.73,2.73,0,1,0-4.84,2.5C21.83,46.58,26.5,49.34,32.63,49.63Z"/></svg>