<svg id="Capa_1" data-name="Capa 1" xmlns="http://www.w3.org/2000/svg" viewBox="0 0 32.42 32.48"><defs><style>.cls-1{fill:#f0e7db;}</style></defs><path class="cls-1" d="M11.21.71h10l.72.06c.9.08,1.81.11,2.7.25a8.15,8.15,0,0,1,7,7.2l.18,1.46V22.61l-.06.32c-.08.65-.11,1.31-.25,1.95a8,8,0,0,1-6.51,6.52,21,21,0,0,1-4.61.35q-4.05,0-8.1,0a21.21,21.21,0,0,1-4.64-.35,8,8,0,0,1-6.47-6.47,21.54,21.54,0,0,1-.35-4.46c0-2.28,0-4.55,0-6.82A34.55,34.55,0,0,1,1,7.81,8.23,8.23,0,0,1,3.76,2.89,9.18,9.18,0,0,1,9.24.83Zm5,28.31V29c1.12,0,2.25,0,3.37,0a26.84,26.84,0,0,0,4.65-.29,5.24,5.24,0,0,0,4.29-3.88,11.55,11.55,0,0,0,.36-3.15c0-3.14,0-6.29,0-9.43a20.88,20.88,0,0,0-.26-4,5.22,5.22,0,0,0-4-4.35,16.41,16.41,0,0,0-3.95-.34c-2.56,0-5.13,0-7.7,0A27.07,27.07,0,0,0,8.4,3.8,5.22,5.22,0,0,0,3.91,7.87a13.45,13.45,0,0,0-.34,3.4c0,3.32,0,6.65,0,10a20.56,20.56,0,0,0,.25,2.93,5.15,5.15,0,0,0,2.36,3.71,6.66,6.66,0,0,0,3.39,1C11.79,28.93,14,29,16.24,29Z"/><path class="cls-1" d="M24.23,16.24a8,8,0,1,1-8-8A8,8,0,0,1,24.23,16.24Zm-13.15,0a5.16,5.16,0,1,0,5.18-5.16A5.14,5.14,0,0,0,11.08,16.24Z"/><path class="cls-1" d="M24.5,9.81a1.87,1.87,0,0,1,0-3.74,1.87,1.87,0,1,1,0,3.74Z"/></svg>