<svg xmlns="http://www.w3.org/2000/svg" xmlns:xlink="http://www.w3.org/1999/xlink" width="512" zoomAndPan="magnify" viewBox="0 0 384 383.999986" height="512" preserveAspectRatio="xMidYMid meet" version="1.0"><defs><g/><clipPath id="e01affbfac"><path d="M 87 36 L 311 36 L 311 316 L 87 316 Z M 87 36 " clip-rule="nonzero"/></clipPath><clipPath id="d4eab9c62d"><path d="M 90.226562 31.769531 L 362.199219 111.789062 L 301.019531 319.726562 L 29.046875 239.707031 Z M 90.226562 31.769531 " clip-rule="nonzero"/></clipPath><clipPath id="46764732c7"><path d="M 90.226562 31.769531 L 362.199219 111.789062 L 301.019531 319.726562 L 29.046875 239.707031 Z M 90.226562 31.769531 " clip-rule="nonzero"/></clipPath></defs><g fill="#f13d84" fill-opacity="1"><g transform="translate(128.587819, 149.675918)"><g><path d="M -0.328125 -17.15625 L -1.515625 -16.984375 L -5.84375 -46.78125 L 32.3125 -52.3125 L 36.640625 -22.515625 L 35.484375 -22.34375 C 34.992188 -25.695312 34.1875 -28.710938 33.0625 -31.390625 C 31.945312 -34.066406 30.617188 -36.425781 29.078125 -38.46875 C 27.546875 -40.519531 25.925781 -42.238281 24.21875 -43.625 C 22.507812 -45.007812 20.820312 -46.085938 19.15625 -46.859375 C 17.488281 -47.640625 15.945312 -48.109375 14.53125 -48.265625 C 14.925781 -45.515625 15.523438 -42.664062 16.328125 -39.71875 C 17.140625 -36.78125 18.097656 -33.859375 19.203125 -30.953125 C 20.304688 -28.054688 21.484375 -25.242188 22.734375 -22.515625 C 23.984375 -19.785156 25.25 -17.265625 26.53125 -14.953125 C 27.820312 -12.648438 29.066406 -10.628906 30.265625 -8.890625 C 31.472656 -7.148438 32.578125 -5.8125 33.578125 -4.875 L 6.671875 -0.96875 C 7.359375 -2.15625 8.03125 -3.753906 8.6875 -5.765625 C 9.351562 -7.773438 9.972656 -10.066406 10.546875 -12.640625 C 11.128906 -15.222656 11.625 -17.992188 12.03125 -20.953125 C 12.4375 -23.921875 12.738281 -26.953125 12.9375 -30.046875 C 13.144531 -33.140625 13.210938 -36.207031 13.140625 -39.25 C 13.066406 -42.300781 12.796875 -45.195312 12.328125 -47.9375 C 11.046875 -47.394531 9.710938 -46.515625 8.328125 -45.296875 C 6.953125 -44.078125 5.644531 -42.5625 4.40625 -40.75 C 3.164062 -38.9375 2.097656 -36.828125 1.203125 -34.421875 C 0.304688 -32.023438 -0.289062 -29.382812 -0.59375 -26.5 C -0.90625 -23.625 -0.816406 -20.507812 -0.328125 -17.15625 Z M -0.328125 -17.15625 "/></g></g></g><g fill="#f13d84" fill-opacity="1"><g transform="translate(166.851084, 143.979814)"><g><path d="M 18.375 0.171875 L 1.40625 0.015625 L 1.828125 -47.109375 L 18.796875 -46.953125 L 18.671875 -32.8125 C 19.753906 -33.65625 21.113281 -34.367188 22.75 -34.953125 C 24.382812 -35.535156 26.304688 -35.816406 28.515625 -35.796875 C 30.585938 -35.773438 32.332031 -35.4375 33.75 -34.78125 C 35.175781 -34.125 36.316406 -33.25 37.171875 -32.15625 C 38.023438 -31.0625 38.640625 -29.851562 39.015625 -28.53125 C 39.398438 -27.207031 39.582031 -25.882812 39.5625 -24.5625 L 39.34375 0.359375 L 22.34375 0.203125 L 22.59375 -26.65625 C 22.601562 -27.976562 22.503906 -29.070312 22.296875 -29.9375 C 22.097656 -30.800781 21.546875 -31.238281 20.640625 -31.25 C 19.984375 -31.257812 19.515625 -31.019531 19.234375 -30.53125 C 18.960938 -30.039062 18.789062 -29.445312 18.71875 -28.75 C 18.65625 -28.0625 18.625 -27.375 18.625 -26.6875 Z M 18.375 0.171875 "/></g></g></g><g fill="#f13d84" fill-opacity="1"><g transform="translate(205.943236, 144.397664)"><g><path d="M 20.390625 4.09375 C 17.515625 3.644531 14.9375 2.800781 12.65625 1.5625 C 10.382812 0.320312 8.476562 -1.238281 6.9375 -3.125 C 5.394531 -5.007812 4.304688 -7.15625 3.671875 -9.5625 C 3.046875 -11.96875 2.941406 -14.535156 3.359375 -17.265625 C 3.929688 -20.929688 5.191406 -24.019531 7.140625 -26.53125 C 9.085938 -29.039062 11.550781 -30.84375 14.53125 -31.9375 C 17.519531 -33.039062 20.847656 -33.304688 24.515625 -32.734375 C 26.429688 -32.441406 28.25 -31.914062 29.96875 -31.15625 C 31.695312 -30.40625 33.203125 -29.394531 34.484375 -28.125 C 35.773438 -26.863281 36.71875 -25.34375 37.3125 -23.5625 C 37.914062 -21.789062 38.035156 -19.726562 37.671875 -17.375 C 37.398438 -15.601562 36.828125 -14.054688 35.953125 -12.734375 C 35.085938 -11.421875 34.015625 -10.34375 32.734375 -9.5 C 31.460938 -8.664062 30.101562 -8.09375 28.65625 -7.78125 C 27.21875 -7.46875 25.769531 -7.425781 24.3125 -7.65625 C 23.40625 -7.789062 22.507812 -8.03125 21.625 -8.375 C 20.738281 -8.71875 19.898438 -9.109375 19.109375 -9.546875 C 19.515625 -7.640625 20.328125 -6.085938 21.546875 -4.890625 C 22.765625 -3.703125 24.445312 -2.945312 26.59375 -2.625 C 27.332031 -2.507812 28.140625 -2.554688 29.015625 -2.765625 C 29.890625 -2.984375 30.738281 -3.304688 31.5625 -3.734375 C 32.394531 -4.160156 33.113281 -4.65625 33.71875 -5.21875 C 34.332031 -5.78125 34.71875 -6.347656 34.875 -6.921875 C 35.582031 -6.554688 35.992188 -5.878906 36.109375 -4.890625 C 36.234375 -3.898438 36.035156 -2.800781 35.515625 -1.59375 C 34.992188 -0.394531 34.101562 0.71875 32.84375 1.75 C 31.59375 2.78125 29.9375 3.539062 27.875 4.03125 C 25.8125 4.519531 23.316406 4.539062 20.390625 4.09375 Z M 18.84375 -11.53125 C 20 -12.03125 21.097656 -12.976562 22.140625 -14.375 C 23.179688 -15.769531 24.085938 -17.414062 24.859375 -19.3125 C 25.628906 -21.21875 26.160156 -23.113281 26.453125 -25 C 26.722656 -26.75 26.707031 -28.007812 26.40625 -28.78125 C 26.113281 -29.550781 25.738281 -29.972656 25.28125 -30.046875 C 24.625 -30.148438 23.976562 -29.851562 23.34375 -29.15625 C 22.71875 -28.46875 22.140625 -27.484375 21.609375 -26.203125 C 21.078125 -24.929688 20.601562 -23.484375 20.1875 -21.859375 C 19.769531 -20.242188 19.425781 -18.582031 19.15625 -16.875 C 19.007812 -15.90625 18.914062 -14.976562 18.875 -14.09375 C 18.832031 -13.21875 18.820312 -12.363281 18.84375 -11.53125 Z M 18.84375 -11.53125 "/></g></g></g><g fill="#f13d84" fill-opacity="1"><g transform="translate(139.027401, 268.924206)"><g><path d="M 22.5625 -4.0625 C 19.3125 -3.332031 16.222656 -3.269531 13.296875 -3.875 C 10.378906 -4.488281 7.722656 -5.65625 5.328125 -7.375 C 2.929688 -9.09375 0.898438 -11.289062 -0.765625 -13.96875 C -2.441406 -16.65625 -3.664062 -19.71875 -4.4375 -23.15625 C -5.195312 -26.59375 -5.390625 -29.878906 -5.015625 -33.015625 C -4.640625 -36.160156 -3.734375 -39.019531 -2.296875 -41.59375 C -0.859375 -44.164062 1.050781 -46.34375 3.4375 -48.125 C 5.832031 -49.90625 8.65625 -51.160156 11.90625 -51.890625 C 14.84375 -52.546875 17.441406 -52.867188 19.703125 -52.859375 C 21.960938 -52.859375 23.859375 -52.679688 25.390625 -52.328125 C 26.929688 -51.972656 28.09375 -51.625 28.875 -51.28125 C 29.664062 -50.945312 30.0625 -50.78125 30.0625 -50.78125 L 26.984375 -24.6875 L 26.53125 -24.59375 C 26.21875 -25.59375 25.734375 -26.894531 25.078125 -28.5 C 24.429688 -30.101562 23.632812 -31.835938 22.6875 -33.703125 C 21.738281 -35.578125 20.6875 -37.414062 19.53125 -39.21875 C 18.375 -41.019531 17.140625 -42.632812 15.828125 -44.0625 C 14.515625 -45.488281 13.148438 -46.566406 11.734375 -47.296875 C 10.316406 -48.023438 8.882812 -48.226562 7.4375 -47.90625 C 5.875 -47.550781 4.800781 -46.546875 4.21875 -44.890625 C 3.632812 -43.242188 3.613281 -41.191406 4.15625 -38.734375 C 5.070312 -34.648438 6.476562 -31.15625 8.375 -28.25 C 10.28125 -25.34375 12.457031 -23.007812 14.90625 -21.25 C 17.363281 -19.5 19.890625 -18.3125 22.484375 -17.6875 C 25.085938 -17.0625 27.546875 -16.988281 29.859375 -17.46875 C 31.023438 -17.726562 32.117188 -18.09375 33.140625 -18.5625 C 34.160156 -19.03125 35.003906 -19.601562 35.671875 -20.28125 C 36.347656 -20.957031 36.710938 -21.691406 36.765625 -22.484375 C 37.640625 -20.546875 37.890625 -18.613281 37.515625 -16.6875 C 37.140625 -14.757812 36.28125 -12.941406 34.9375 -11.234375 C 33.601562 -9.535156 31.875 -8.0625 29.75 -6.8125 C 27.625 -5.570312 25.226562 -4.65625 22.5625 -4.0625 Z M 22.5625 -4.0625 "/></g></g></g><g fill="#f13d84" fill-opacity="1"><g transform="translate(177.458496, 261.135415)"><g><path d="M -1.015625 -47.140625 L 15.140625 -47.96875 L 17.109375 -9.796875 C 17.171875 -8.472656 17.40625 -7.175781 17.8125 -5.90625 C 18.21875 -4.644531 18.820312 -3.660156 19.625 -2.953125 C 18.957031 -2.148438 18.03125 -1.425781 16.84375 -0.78125 C 15.65625 -0.144531 14.304688 0.207031 12.796875 0.28125 C 9.085938 0.46875 6.210938 -0.453125 4.171875 -2.484375 C 2.140625 -4.523438 1.015625 -7.691406 0.796875 -11.984375 Z M -1.015625 -47.140625 "/></g></g></g><g fill="#f13d84" fill-opacity="1"><g transform="translate(195.000174, 260.101173)"><g><path d="M 4.015625 -34.9375 L 20.9375 -33.921875 L 18.859375 1.125 L 1.9375 0.109375 Z M 3.96875 -43.15625 C 4.082031 -44.945312 4.539062 -46.222656 5.34375 -46.984375 C 6.144531 -47.753906 7.234375 -48.195312 8.609375 -48.3125 C 9.984375 -48.4375 11.566406 -48.445312 13.359375 -48.34375 C 15.140625 -48.238281 16.695312 -48.046875 18.03125 -47.765625 C 19.375 -47.484375 20.398438 -46.910156 21.109375 -46.046875 C 21.816406 -45.191406 22.113281 -43.867188 22 -42.078125 C 21.914062 -40.628906 21.617188 -39.519531 21.109375 -38.75 C 20.609375 -37.976562 19.9375 -37.445312 19.09375 -37.15625 C 18.257812 -36.863281 17.300781 -36.71875 16.21875 -36.71875 C 15.132812 -36.71875 13.953125 -36.753906 12.671875 -36.828125 C 11.347656 -36.910156 10.140625 -37.015625 9.046875 -37.140625 C 7.953125 -37.265625 7.007812 -37.523438 6.21875 -37.921875 C 5.425781 -38.316406 4.832031 -38.925781 4.4375 -39.75 C 4.039062 -40.570312 3.882812 -41.707031 3.96875 -43.15625 Z M 3.96875 -43.15625 "/></g></g></g><g fill="#f13d84" fill-opacity="1"><g transform="translate(213.799447, 260.281594)"><g><path d="M 15.265625 15.640625 L -1.265625 11.84375 L 9.234375 -33.90625 L 29.03125 -29.359375 C 31.113281 -28.878906 33.054688 -28.113281 34.859375 -27.0625 C 36.671875 -26.019531 38.1875 -24.664062 39.40625 -23 C 40.632812 -21.34375 41.453125 -19.3125 41.859375 -16.90625 C 42.265625 -14.507812 42.097656 -11.707031 41.359375 -8.5 C 40.703125 -5.613281 39.695312 -3.195312 38.34375 -1.25 C 36.988281 0.695312 35.390625 2.207031 33.546875 3.28125 C 31.703125 4.351562 29.726562 5.007812 27.625 5.25 C 25.53125 5.5 23.378906 5.367188 21.171875 4.859375 L 17.90625 4.109375 Z M 25.265625 -27.953125 L 18.375 2.078125 C 18.644531 2.441406 19 2.671875 19.4375 2.765625 C 20.132812 2.929688 20.734375 2.644531 21.234375 1.90625 C 21.742188 1.175781 22.1875 0.203125 22.5625 -1.015625 C 22.9375 -2.242188 23.269531 -3.484375 23.5625 -4.734375 C 24.175781 -7.429688 24.789062 -10.128906 25.40625 -12.828125 C 26.03125 -15.523438 26.648438 -18.21875 27.265625 -20.90625 C 27.816406 -23.289062 28.101562 -25.046875 28.125 -26.171875 C 28.144531 -27.296875 27.617188 -27.984375 26.546875 -28.234375 C 26.140625 -28.328125 25.710938 -28.234375 25.265625 -27.953125 Z M 25.265625 -27.953125 "/></g></g></g><g clip-path="url(#e01affbfac)"><g clip-path="url(#d4eab9c62d)"><g clip-path="url(#46764732c7)"><path fill="#adab18" d="M 290.042969 305.40625 C 288.078125 302.902344 284.183594 299.679688 281.4375 298.683594 L 93.667969 59.414062 C 89.527344 54.136719 90.449219 46.476562 95.726562 42.335938 C 99.148438 39.648438 102.5 39.875 106.277344 43.050781 C 108.101562 44.585938 109.6875 46.652344 110.972656 49.1875 L 138.210938 102.789062 C 138.742188 103.691406 139.132812 104.765625 139.546875 105.902344 C 140.554688 108.667969 141.699219 111.800781 145.214844 112.691406 L 159.941406 116.425781 C 164.570312 117.597656 167.792969 121.753906 167.785156 126.527344 L 167.761719 136.648438 C 167.746094 144.1875 172.851562 150.699219 180.183594 152.480469 L 189.925781 154.84375 C 194.613281 155.980469 197.878906 160.144531 197.871094 164.972656 L 197.847656 174.984375 C 197.832031 182.535156 202.945312 189.039062 210.273438 190.816406 L 220 193.171875 C 224.6875 194.308594 227.960938 198.472656 227.949219 203.300781 L 227.925781 213.316406 C 227.910156 220.859375 233.019531 227.371094 240.351562 229.148438 L 250.085938 231.503906 C 254.773438 232.640625 258.042969 236.808594 258.035156 241.632812 L 258.003906 253.808594 C 257.988281 260.101562 261.660156 265.894531 267.359375 268.5625 L 292.683594 280.425781 C 294.242188 282.886719 298.316406 286 301.230469 287.363281 C 305.203125 289.222656 309.285156 288.886719 310.347656 286.617188 C 311.410156 284.347656 309.050781 281 305.074219 279.140625 C 302.21875 277.804688 297.359375 276.691406 294.449219 277.011719 L 268.992188 265.085938 C 264.636719 263.046875 261.835938 258.625 261.84375 253.816406 L 261.875 241.644531 C 261.890625 235.03125 257.414062 229.328125 250.988281 227.773438 L 241.253906 225.414062 C 235.65625 224.058594 231.757812 219.085938 231.769531 213.324219 L 231.792969 203.308594 C 231.808594 196.699219 227.328125 190.996094 220.902344 189.4375 L 211.179688 187.082031 C 205.582031 185.726562 201.675781 180.753906 201.6875 174.996094 L 201.714844 164.980469 C 201.726562 158.371094 197.253906 152.667969 190.828125 151.109375 L 181.085938 148.75 C 175.488281 147.390625 171.589844 142.417969 171.601562 136.660156 L 171.625 126.539062 C 171.640625 120 167.222656 114.3125 160.886719 112.703125 L 146.160156 108.96875 C 144.683594 108.59375 144.058594 107.0625 143.15625 104.589844 C 142.703125 103.339844 142.230469 102.050781 141.582031 100.949219 L 114.398438 47.445312 C 112.875 44.449219 110.976562 41.980469 108.75 40.109375 C 103.566406 35.753906 98.242188 35.476562 93.355469 39.3125 C 86.410156 44.761719 85.195312 54.84375 90.644531 61.789062 L 278.414062 301.054688 C 278.726562 303.957031 280.933594 308.507812 282.898438 311.011719 C 285.609375 314.464844 289.402344 316.007812 291.375 314.460938 C 293.347656 312.910156 292.75 308.859375 290.042969 305.40625 Z M 290.042969 305.40625 " fill-opacity="1" fill-rule="nonzero"/></g></g></g><g fill="#f13d84" fill-opacity="1"><g transform="translate(29.876749, 255.18587)"><g/></g></g><g fill="#f13d84" fill-opacity="1"><g transform="translate(39.780807, 246.789891)"><g><path d="M -7.28125 -13.484375 C -8.050781 -14.742188 -8.503906 -16.117188 -8.640625 -17.609375 C -8.785156 -19.097656 -8.65625 -20.585938 -8.25 -22.078125 C -7.851562 -23.578125 -7.175781 -24.925781 -6.21875 -26.125 C -8.789062 -26.519531 -11.171875 -27.296875 -13.359375 -28.453125 C -15.546875 -29.609375 -17.34375 -31.359375 -18.75 -33.703125 C -19.238281 -34.515625 -19.609375 -35.429688 -19.859375 -36.453125 C -20.109375 -37.484375 -20.21875 -38.503906 -20.1875 -39.515625 C -20.164062 -40.535156 -19.992188 -41.441406 -19.671875 -42.234375 C -19.359375 -43.035156 -18.882812 -43.628906 -18.25 -44.015625 L 8.046875 -59.84375 C 8.535156 -59.5625 8.984375 -59.234375 9.390625 -58.859375 C 9.796875 -58.492188 10.160156 -58.046875 10.484375 -57.515625 C 11.097656 -56.484375 11.421875 -55.425781 11.453125 -54.34375 C 11.484375 -53.269531 11.300781 -52.238281 10.90625 -51.25 C 10.507812 -50.269531 10.003906 -49.390625 9.390625 -48.609375 C 8.773438 -47.828125 8.128906 -47.234375 7.453125 -46.828125 C 5.941406 -45.910156 4.304688 -45.273438 2.546875 -44.921875 C 0.785156 -44.566406 -1 -44.359375 -2.8125 -44.296875 C -4.625 -44.234375 -6.390625 -44.1875 -8.109375 -44.15625 C -9.828125 -44.125 -11.429688 -44.003906 -12.921875 -43.796875 C -14.421875 -43.597656 -15.707031 -43.175781 -16.78125 -42.53125 C -17.0625 -42.363281 -17.195312 -42.078125 -17.1875 -41.671875 C -17.1875 -41.273438 -17.125 -40.972656 -17 -40.765625 C -16.425781 -39.816406 -15.519531 -39.226562 -14.28125 -39 C -13.050781 -38.769531 -11.570312 -38.78125 -9.84375 -39.03125 C -8.125 -39.28125 -6.25 -39.628906 -4.21875 -40.078125 C -2.1875 -40.535156 -0.046875 -40.972656 2.203125 -41.390625 C 4.453125 -41.804688 6.695312 -42.066406 8.9375 -42.171875 C 11.175781 -42.285156 13.359375 -42.128906 15.484375 -41.703125 C 17.617188 -41.273438 19.601562 -40.453125 21.4375 -39.234375 C 23.269531 -38.015625 24.882812 -36.242188 26.28125 -33.921875 C 27.875 -31.285156 28.695312 -28.53125 28.75 -25.65625 C 28.8125 -22.789062 27.976562 -20 26.25 -17.28125 C 24.53125 -14.5625 21.796875 -12.0625 18.046875 -9.78125 C 15.921875 -8.5 13.671875 -7.535156 11.296875 -6.890625 C 8.929688 -6.242188 6.585938 -6.019531 4.265625 -6.21875 C 1.953125 -6.425781 -0.203125 -7.113281 -2.203125 -8.28125 C -4.210938 -9.457031 -5.90625 -11.191406 -7.28125 -13.484375 Z M 25.484375 -23.46875 C 24.804688 -24.601562 23.722656 -25.378906 22.234375 -25.796875 C 20.742188 -26.222656 18.972656 -26.421875 16.921875 -26.390625 C 14.867188 -26.367188 12.644531 -26.269531 10.25 -26.09375 C 7.863281 -25.925781 5.40625 -25.789062 2.875 -25.6875 C 0.351562 -25.582031 -2.117188 -25.660156 -4.546875 -25.921875 C -3.984375 -25.046875 -3.097656 -24.125 -1.890625 -23.15625 C -0.691406 -22.195312 0.71875 -21.269531 2.34375 -20.375 C 3.96875 -19.488281 5.703125 -18.710938 7.546875 -18.046875 C 9.390625 -17.378906 11.265625 -16.882812 13.171875 -16.5625 C 15.085938 -16.25 16.921875 -16.1875 18.671875 -16.375 C 20.429688 -16.570312 22.023438 -17.101562 23.453125 -17.96875 C 24.640625 -18.6875 25.398438 -19.570312 25.734375 -20.625 C 26.066406 -21.6875 25.984375 -22.632812 25.484375 -23.46875 Z M 25.484375 -23.46875 "/></g></g></g><g fill="#f13d84" fill-opacity="1"><g transform="translate(73.730691, 226.93474)"><g><path d="M -12.734375 -32.765625 L 2.703125 -39.765625 L 17.203125 -7.796875 L 1.765625 -0.796875 Z M -16.609375 -40.03125 C -17.347656 -41.65625 -17.539062 -42.992188 -17.1875 -44.046875 C -16.832031 -45.097656 -16.070312 -46.003906 -14.90625 -46.765625 C -13.75 -47.523438 -12.359375 -48.273438 -10.734375 -49.015625 C -9.109375 -49.742188 -7.632812 -50.289062 -6.3125 -50.65625 C -4.988281 -51.03125 -3.816406 -51.003906 -2.796875 -50.578125 C -1.773438 -50.148438 -0.894531 -49.125 -0.15625 -47.5 C 0.445312 -46.175781 0.703125 -45.050781 0.609375 -44.125 C 0.523438 -43.207031 0.1875 -42.421875 -0.40625 -41.765625 C -1.007812 -41.117188 -1.796875 -40.539062 -2.765625 -40.03125 C -3.734375 -39.53125 -4.800781 -39.019531 -5.96875 -38.5 C -7.164062 -37.945312 -8.273438 -37.472656 -9.296875 -37.078125 C -10.328125 -36.679688 -11.285156 -36.46875 -12.171875 -36.4375 C -13.066406 -36.414062 -13.878906 -36.675781 -14.609375 -37.21875 C -15.335938 -37.769531 -16.003906 -38.707031 -16.609375 -40.03125 Z M -16.609375 -40.03125 "/></g></g></g><g fill="#f13d84" fill-opacity="1"><g transform="translate(91.476083, 218.432146)"><g><path d="M -7.078125 -23.46875 C -7.910156 -25.976562 -7.925781 -28.253906 -7.125 -30.296875 C -6.332031 -32.347656 -4.890625 -34.160156 -2.796875 -35.734375 C -0.710938 -37.316406 1.875 -38.625 4.96875 -39.65625 C 6.675781 -40.21875 8.453125 -40.660156 10.296875 -40.984375 C 12.140625 -41.304688 13.914062 -41.410156 15.625 -41.296875 C 17.332031 -41.179688 18.816406 -40.765625 20.078125 -40.046875 C 21.347656 -39.328125 22.238281 -38.203125 22.75 -36.671875 C 23.113281 -35.578125 23.113281 -34.4375 22.75 -33.25 C 22.382812 -32.070312 21.671875 -31.226562 20.609375 -30.71875 C 19.941406 -31.25 18.863281 -31.695312 17.375 -32.0625 C 15.894531 -32.425781 14.210938 -32.703125 12.328125 -32.890625 C 10.453125 -33.085938 8.523438 -33.179688 6.546875 -33.171875 C 4.578125 -33.171875 2.753906 -33.09375 1.078125 -32.9375 C -0.585938 -32.789062 -1.921875 -32.550781 -2.921875 -32.21875 C -3.441406 -32.039062 -3.972656 -31.8125 -4.515625 -31.53125 C -5.066406 -31.25 -5.257812 -30.847656 -5.09375 -30.328125 C -4.925781 -29.828125 -4.28125 -29.566406 -3.15625 -29.546875 C -2.039062 -29.523438 -0.613281 -29.597656 1.125 -29.765625 C 2.875 -29.929688 4.804688 -30.097656 6.921875 -30.265625 C 9.046875 -30.441406 11.203125 -30.5 13.390625 -30.4375 C 15.578125 -30.375 17.660156 -30.070312 19.640625 -29.53125 C 21.617188 -29 23.363281 -28.125 24.875 -26.90625 C 26.382812 -25.6875 27.5 -24.003906 28.21875 -21.859375 C 29.539062 -17.898438 29.097656 -14.410156 26.890625 -11.390625 C 24.679688 -8.367188 21.09375 -6.03125 16.125 -4.375 C 13.40625 -3.476562 10.785156 -3.003906 8.265625 -2.953125 C 5.753906 -2.910156 3.582031 -3.34375 1.75 -4.25 C -0.0703125 -5.164062 -1.316406 -6.625 -1.984375 -8.625 C -2.273438 -9.488281 -2.390625 -10.363281 -2.328125 -11.25 C -2.273438 -12.144531 -2.054688 -12.957031 -1.671875 -13.6875 C -1.296875 -14.414062 -0.738281 -14.921875 0 -15.203125 C 1 -14.398438 2.238281 -13.660156 3.71875 -12.984375 C 5.195312 -12.304688 6.8125 -11.703125 8.5625 -11.171875 C 10.3125 -10.640625 12.082031 -10.222656 13.875 -9.921875 C 15.664062 -9.628906 17.34375 -9.488281 18.90625 -9.5 C 20.476562 -9.507812 21.8125 -9.695312 22.90625 -10.0625 C 23.6875 -10.320312 24.179688 -10.648438 24.390625 -11.046875 C 24.609375 -11.453125 24.644531 -11.878906 24.5 -12.328125 C 24.269531 -13.015625 23.613281 -13.457031 22.53125 -13.65625 C 21.457031 -13.863281 20.09375 -13.972656 18.4375 -13.984375 C 16.78125 -14.003906 14.957031 -14.003906 12.96875 -13.984375 C 10.988281 -13.960938 8.976562 -14.0625 6.9375 -14.28125 C 4.90625 -14.5 2.953125 -14.914062 1.078125 -15.53125 C -0.785156 -16.144531 -2.429688 -17.082031 -3.859375 -18.34375 C -5.285156 -19.613281 -6.359375 -21.320312 -7.078125 -23.46875 Z M -7.078125 -23.46875 "/></g></g></g><g fill="#f13d84" fill-opacity="1"><g transform="translate(123.03219, 208.228372)"><g><path d="M -5.234375 -32.859375 L -7.625 -32.34375 L -8.03125 -34.140625 C -6.582031 -34.867188 -5.066406 -35.875 -3.484375 -37.15625 C -1.910156 -38.445312 -0.394531 -39.859375 1.0625 -41.390625 C 2.53125 -42.921875 3.800781 -44.421875 4.875 -45.890625 C 5.957031 -47.359375 6.691406 -48.671875 7.078125 -49.828125 L 7.546875 -49.9375 L 10.140625 -38.203125 L 12.625 -38.75 L 13.03125 -36.90625 L 10.546875 -36.359375 L 15.796875 -12.625 C 16.078125 -11.332031 16.523438 -10.09375 17.140625 -8.90625 C 17.765625 -7.71875 18.519531 -6.84375 19.40625 -6.28125 C 18.90625 -5.394531 18.113281 -4.535156 17.03125 -3.703125 C 15.957031 -2.867188 14.691406 -2.285156 13.234375 -1.953125 C 9.609375 -1.160156 6.617188 -1.597656 4.265625 -3.265625 C 1.921875 -4.929688 0.285156 -7.863281 -0.640625 -12.0625 Z M -5.234375 -32.859375 "/></g></g></g><g fill="#f13d84" fill-opacity="1"><g transform="translate(141.938293, 203.573433)"><g><path d="M 20.765625 -1.375 C 17.859375 -1.050781 15.144531 -1.191406 12.625 -1.796875 C 10.101562 -2.398438 7.851562 -3.410156 5.875 -4.828125 C 3.90625 -6.242188 2.300781 -8.03125 1.0625 -10.1875 C -0.175781 -12.351562 -0.945312 -14.804688 -1.25 -17.546875 C -1.664062 -21.234375 -1.257812 -24.539062 -0.03125 -27.46875 C 1.1875 -30.40625 3.09375 -32.789062 5.6875 -34.625 C 8.28125 -36.46875 11.414062 -37.597656 15.09375 -38.015625 C 17.03125 -38.234375 18.925781 -38.203125 20.78125 -37.921875 C 22.644531 -37.640625 24.363281 -37.054688 25.9375 -36.171875 C 27.507812 -35.285156 28.816406 -34.0625 29.859375 -32.5 C 30.898438 -30.9375 31.554688 -28.972656 31.828125 -26.609375 C 32.023438 -24.828125 31.875 -23.1875 31.375 -21.6875 C 30.882812 -20.195312 30.128906 -18.878906 29.109375 -17.734375 C 28.097656 -16.597656 26.9375 -15.691406 25.625 -15.015625 C 24.320312 -14.335938 22.9375 -13.914062 21.46875 -13.75 C 20.550781 -13.644531 19.617188 -13.640625 18.671875 -13.734375 C 17.734375 -13.828125 16.828125 -13.984375 15.953125 -14.203125 C 16.847656 -12.472656 18.035156 -11.191406 19.515625 -10.359375 C 21.003906 -9.523438 22.828125 -9.226562 24.984375 -9.46875 C 25.722656 -9.550781 26.484375 -9.8125 27.265625 -10.25 C 28.054688 -10.695312 28.796875 -11.234375 29.484375 -11.859375 C 30.179688 -12.484375 30.75 -13.144531 31.1875 -13.84375 C 31.632812 -14.550781 31.851562 -15.203125 31.84375 -15.796875 C 32.625 -15.628906 33.203125 -15.082031 33.578125 -14.15625 C 33.953125 -13.238281 34.046875 -12.128906 33.859375 -10.828125 C 33.671875 -9.535156 33.109375 -8.222656 32.171875 -6.890625 C 31.234375 -5.566406 29.832031 -4.398438 27.96875 -3.390625 C 26.101562 -2.378906 23.703125 -1.707031 20.765625 -1.375 Z M 15.171875 -16.0625 C 16.160156 -16.84375 16.972656 -18.039062 17.609375 -19.65625 C 18.253906 -21.28125 18.703125 -23.109375 18.953125 -25.140625 C 19.203125 -27.179688 19.21875 -29.15625 19 -31.0625 C 18.800781 -32.800781 18.457031 -34.003906 17.96875 -34.671875 C 17.488281 -35.347656 17.015625 -35.660156 16.546875 -35.609375 C 15.890625 -35.535156 15.347656 -35.082031 14.921875 -34.25 C 14.492188 -33.414062 14.1875 -32.3125 14 -30.9375 C 13.820312 -29.570312 13.738281 -28.054688 13.75 -26.390625 C 13.769531 -24.722656 13.875 -23.03125 14.0625 -21.3125 C 14.175781 -20.34375 14.328125 -19.425781 14.515625 -18.5625 C 14.710938 -17.695312 14.929688 -16.863281 15.171875 -16.0625 Z M 15.171875 -16.0625 "/></g></g></g><g fill="#f13d84" fill-opacity="1"><g transform="translate(175.797865, 199.689793)"><g><path d="M 1.40625 0.03125 L 2.171875 -35.0625 L 19.140625 -34.6875 L 18.890625 -23.15625 C 18.921875 -24.632812 19.226562 -26.097656 19.8125 -27.546875 C 20.394531 -28.992188 21.207031 -30.316406 22.25 -31.515625 C 23.300781 -32.710938 24.523438 -33.664062 25.921875 -34.375 C 27.328125 -35.082031 28.878906 -35.414062 30.578125 -35.375 C 31.773438 -35.351562 32.894531 -35.0625 33.9375 -34.5 C 34.988281 -33.945312 35.648438 -33.351562 35.921875 -32.71875 L 29.296875 -11.328125 L 28.828125 -11.34375 C 28.859375 -12.664062 28.71875 -14.007812 28.40625 -15.375 C 28.101562 -16.75 27.648438 -18.015625 27.046875 -19.171875 C 26.453125 -20.335938 25.722656 -21.273438 24.859375 -21.984375 C 23.992188 -22.703125 23.023438 -23.070312 21.953125 -23.09375 C 20.984375 -23.113281 20.222656 -22.84375 19.671875 -22.28125 C 19.128906 -21.726562 18.847656 -21.125 18.828125 -20.46875 L 18.375 0.40625 Z M 1.40625 0.03125 "/></g></g></g><g fill="#f13d84" fill-opacity="1"><g transform="translate(209.36675, 200.109699)"><g><path d="M 18.125 3.015625 L 1.390625 0.234375 L 9.140625 -46.25 L 25.875 -43.46875 L 23.546875 -29.515625 C 24.742188 -30.179688 26.191406 -30.671875 27.890625 -30.984375 C 29.597656 -31.304688 31.539062 -31.285156 33.71875 -30.921875 C 35.769531 -30.585938 37.445312 -29.984375 38.75 -29.109375 C 40.050781 -28.242188 41.039062 -27.203125 41.71875 -25.984375 C 42.394531 -24.765625 42.816406 -23.472656 42.984375 -22.109375 C 43.148438 -20.753906 43.125 -19.421875 42.90625 -18.109375 L 38.8125 6.46875 L 22.046875 3.671875 L 26.46875 -22.828125 C 26.675781 -24.128906 26.75 -25.222656 26.6875 -26.109375 C 26.625 -27.003906 26.144531 -27.523438 25.25 -27.671875 C 24.601562 -27.773438 24.101562 -27.609375 23.75 -27.171875 C 23.40625 -26.734375 23.144531 -26.175781 22.96875 -25.5 C 22.789062 -24.832031 22.648438 -24.160156 22.546875 -23.484375 Z M 18.125 3.015625 "/></g></g></g><g fill="#f13d84" fill-opacity="1"><g transform="translate(247.898925, 206.524092)"><g><path d="M 6.078125 -16.5 C 7.210938 -20.03125 8.925781 -22.878906 11.21875 -25.046875 C 13.507812 -27.210938 16.175781 -28.609375 19.21875 -29.234375 C 22.257812 -29.867188 25.476562 -29.640625 28.875 -28.546875 C 32.3125 -27.429688 35.082031 -25.726562 37.1875 -23.4375 C 39.289062 -21.144531 40.628906 -18.453125 41.203125 -15.359375 C 41.785156 -12.265625 41.507812 -8.953125 40.375 -5.421875 C 39.226562 -1.898438 37.507812 0.945312 35.21875 3.125 C 32.9375 5.3125 30.273438 6.722656 27.234375 7.359375 C 24.191406 7.992188 20.953125 7.753906 17.515625 6.640625 C 14.117188 5.546875 11.367188 3.847656 9.265625 1.546875 C 7.160156 -0.742188 5.816406 -3.441406 5.234375 -6.546875 C 4.648438 -9.660156 4.929688 -12.976562 6.078125 -16.5 Z M 28.46875 -27.109375 C 27.988281 -27.265625 27.476562 -27.109375 26.9375 -26.640625 C 26.394531 -26.171875 25.859375 -25.113281 25.328125 -23.46875 C 25.273438 -23.3125 25.117188 -22.835938 24.859375 -22.046875 C 24.609375 -21.253906 24.300781 -20.304688 23.9375 -19.203125 C 23.582031 -18.097656 23.222656 -16.984375 22.859375 -15.859375 C 22.503906 -14.742188 22.195312 -13.78125 21.9375 -12.96875 C 21.675781 -12.164062 21.519531 -11.6875 21.46875 -11.53125 C 21.414062 -11.382812 21.257812 -10.90625 21 -10.09375 C 20.738281 -9.289062 20.425781 -8.328125 20.0625 -7.203125 C 19.707031 -6.085938 19.347656 -4.976562 18.984375 -3.875 C 18.628906 -2.769531 18.320312 -1.820312 18.0625 -1.03125 C 17.8125 -0.238281 17.660156 0.234375 17.609375 0.390625 C 17.078125 2.035156 16.894531 3.207031 17.0625 3.90625 C 17.226562 4.601562 17.550781 5.03125 18.03125 5.1875 C 18.539062 5.351562 19.0625 5.195312 19.59375 4.71875 C 20.125 4.25 20.65625 3.191406 21.1875 1.546875 C 21.238281 1.390625 21.390625 0.914062 21.640625 0.125 C 21.898438 -0.664062 22.207031 -1.613281 22.5625 -2.71875 C 22.925781 -3.820312 23.285156 -4.929688 23.640625 -6.046875 C 24.003906 -7.171875 24.316406 -8.132812 24.578125 -8.9375 C 24.835938 -9.75 24.992188 -10.226562 25.046875 -10.375 C 25.097656 -10.53125 25.253906 -11.007812 25.515625 -11.8125 C 25.773438 -12.625 26.082031 -13.585938 26.4375 -14.703125 C 26.800781 -15.828125 27.160156 -16.941406 27.515625 -18.046875 C 27.878906 -19.148438 28.1875 -20.097656 28.4375 -20.890625 C 28.695312 -21.679688 28.851562 -22.15625 28.90625 -22.3125 C 29.4375 -23.957031 29.625 -25.125 29.46875 -25.8125 C 29.3125 -26.507812 28.976562 -26.941406 28.46875 -27.109375 Z M 28.46875 -27.109375 "/></g></g></g><g fill="#f13d84" fill-opacity="1"><g transform="translate(282.036417, 217.433607)"><g><path d="M 8.328125 -15.484375 C 9.953125 -18.816406 12.050781 -21.394531 14.625 -23.21875 C 17.195312 -25.039062 20.035156 -26.050781 23.140625 -26.25 C 26.242188 -26.457031 29.398438 -25.773438 32.609375 -24.203125 C 35.859375 -22.617188 38.359375 -20.539062 40.109375 -17.96875 C 41.867188 -15.40625 42.816406 -12.550781 42.953125 -9.40625 C 43.097656 -6.257812 42.359375 -3.019531 40.734375 0.3125 C 39.109375 3.644531 37.007812 6.226562 34.4375 8.0625 C 31.863281 9.90625 29.023438 10.925781 25.921875 11.125 C 22.828125 11.320312 19.65625 10.628906 16.40625 9.046875 C 13.195312 7.472656 10.710938 5.40625 8.953125 2.84375 C 7.191406 0.28125 6.238281 -2.578125 6.09375 -5.734375 C 5.957031 -8.898438 6.703125 -12.148438 8.328125 -15.484375 Z M 32 -22.828125 C 31.539062 -23.046875 31.007812 -22.960938 30.40625 -22.578125 C 29.8125 -22.191406 29.132812 -21.222656 28.375 -19.671875 C 28.300781 -19.523438 28.082031 -19.078125 27.71875 -18.328125 C 27.351562 -17.585938 26.914062 -16.691406 26.40625 -15.640625 C 25.894531 -14.597656 25.378906 -13.546875 24.859375 -12.484375 C 24.347656 -11.429688 23.90625 -10.523438 23.53125 -9.765625 C 23.164062 -9.003906 22.945312 -8.550781 22.875 -8.40625 C 22.8125 -8.269531 22.59375 -7.816406 22.21875 -7.046875 C 21.84375 -6.285156 21.394531 -5.375 20.875 -4.3125 C 20.363281 -3.257812 19.851562 -2.210938 19.34375 -1.171875 C 18.832031 -0.128906 18.394531 0.765625 18.03125 1.515625 C 17.664062 2.265625 17.453125 2.710938 17.390625 2.859375 C 16.628906 4.410156 16.28125 5.546875 16.34375 6.265625 C 16.40625 6.984375 16.664062 7.453125 17.125 7.671875 C 17.601562 7.910156 18.140625 7.832031 18.734375 7.4375 C 19.328125 7.039062 20.003906 6.066406 20.765625 4.515625 C 20.828125 4.367188 21.039062 3.921875 21.40625 3.171875 C 21.769531 2.421875 22.207031 1.523438 22.71875 0.484375 C 23.226562 -0.554688 23.738281 -1.601562 24.25 -2.65625 C 24.769531 -3.71875 25.21875 -4.628906 25.59375 -5.390625 C 25.96875 -6.160156 26.1875 -6.613281 26.25 -6.75 C 26.320312 -6.894531 26.539062 -7.347656 26.90625 -8.109375 C 27.28125 -8.867188 27.722656 -9.773438 28.234375 -10.828125 C 28.753906 -11.890625 29.269531 -12.941406 29.78125 -13.984375 C 30.289062 -15.035156 30.726562 -15.929688 31.09375 -16.671875 C 31.457031 -17.421875 31.675781 -17.867188 31.75 -18.015625 C 32.507812 -19.566406 32.859375 -20.695312 32.796875 -21.40625 C 32.742188 -22.113281 32.476562 -22.585938 32 -22.828125 Z M 32 -22.828125 "/></g></g></g><g fill="#f13d84" fill-opacity="1"><g transform="translate(314.299473, 232.974914)"><g><path d="M 10.46875 -14.140625 C 12.15625 -16.597656 14.003906 -18.519531 16.015625 -19.90625 C 18.023438 -21.300781 20.117188 -22.210938 22.296875 -22.640625 C 24.472656 -23.066406 26.609375 -23.046875 28.703125 -22.578125 C 30.804688 -22.117188 32.796875 -21.253906 34.671875 -19.984375 L 37.4375 -18.109375 L 43.671875 -27.265625 L 57.6875 -17.703125 L 31.15625 21.234375 L 14.375 9.796875 C 12.601562 8.585938 11.066406 7.164062 9.765625 5.53125 C 8.460938 3.90625 7.539062 2.09375 7 0.09375 C 6.457031 -1.90625 6.4375 -4.09375 6.9375 -6.46875 C 7.4375 -8.851562 8.613281 -11.410156 10.46875 -14.140625 Z M 28.953125 -11.921875 C 27.296875 -9.503906 25.644531 -7.085938 24 -4.671875 C 22.351562 -2.265625 20.710938 0.144531 19.078125 2.5625 C 17.691406 4.582031 16.796875 6.113281 16.390625 7.15625 C 15.984375 8.207031 16.222656 9.035156 17.109375 9.640625 C 17.441406 9.867188 17.867188 9.9375 18.390625 9.84375 L 36.28125 -16.40625 C 36.175781 -16.820312 35.929688 -17.160156 35.546875 -17.421875 C 34.960938 -17.816406 34.296875 -17.765625 33.546875 -17.265625 C 32.796875 -16.765625 32.023438 -16.019531 31.234375 -15.03125 C 30.453125 -14.050781 29.691406 -13.015625 28.953125 -11.921875 Z M 28.953125 -11.921875 "/></g></g></g></svg>