<svg xmlns="http://www.w3.org/2000/svg" xmlns:xlink="http://www.w3.org/1999/xlink" width="512" zoomAndPan="magnify" viewBox="0 0 384 383.999986" height="512" preserveAspectRatio="xMidYMid meet" version="1.0"><defs><g/><clipPath id="6f481405e2"><path d="M 75 0 L 309 0 C 350.421875 0 384 33.578125 384 75 L 384 309 C 384 350.421875 350.421875 384 309 384 L 75 384 C 33.578125 384 0 350.421875 0 309 L 0 75 C 0 33.578125 33.578125 0 75 0 Z M 75 0 " clip-rule="nonzero"/></clipPath><clipPath id="bf4a7493ee"><path d="M 112 71 L 289 71 L 289 291 L 112 291 Z M 112 71 " clip-rule="nonzero"/></clipPath><clipPath id="923ba409be"><path d="M 115.011719 67.332031 L 329.425781 130.414062 L 281.160156 294.460938 L 66.746094 231.378906 Z M 115.011719 67.332031 " clip-rule="nonzero"/></clipPath><clipPath id="d90694dcd4"><path d="M 115.011719 67.332031 L 329.425781 130.414062 L 281.160156 294.460938 L 66.746094 231.378906 Z M 115.011719 67.332031 " clip-rule="nonzero"/></clipPath></defs><rect x="-38.4" width="460.8" fill="#ffffff" y="-38.399999" height="460.799983" fill-opacity="1"/><rect x="-38.4" width="460.8" fill="#ffffff" y="-38.399999" height="460.799983" fill-opacity="1"/><g clip-path="url(#6f481405e2)"><rect x="-38.4" width="460.8" fill="#f0e7db" y="-38.399999" height="460.799983" fill-opacity="1"/></g><g fill="#f13d84" fill-opacity="1"><g transform="translate(145.459726, 160.309276)"><g><path d="M -0.265625 -13.5 L -1.171875 -13.375 L -4.578125 -36.875 L 25.484375 -41.234375 L 28.890625 -17.734375 L 27.96875 -17.59375 C 27.582031 -20.238281 26.945312 -22.617188 26.0625 -24.734375 C 25.1875 -26.859375 24.140625 -28.726562 22.921875 -30.34375 C 21.710938 -31.957031 20.4375 -33.3125 19.09375 -34.40625 C 17.75 -35.5 16.414062 -36.347656 15.09375 -36.953125 C 13.78125 -37.554688 12.566406 -37.914062 11.453125 -38.03125 C 11.765625 -35.875 12.238281 -33.632812 12.875 -31.3125 C 13.507812 -28.988281 14.257812 -26.679688 15.125 -24.390625 C 16 -22.109375 16.929688 -19.894531 17.921875 -17.75 C 18.921875 -15.601562 19.921875 -13.617188 20.921875 -11.796875 C 21.929688 -9.984375 22.910156 -8.382812 23.859375 -7 C 24.816406 -5.625 25.6875 -4.570312 26.46875 -3.84375 L 5.25 -0.765625 C 5.789062 -1.691406 6.320312 -2.945312 6.84375 -4.53125 C 7.363281 -6.125 7.851562 -7.9375 8.3125 -9.96875 C 8.78125 -12 9.175781 -14.179688 9.5 -16.515625 C 9.820312 -18.859375 10.0625 -21.25 10.21875 -23.6875 C 10.375 -26.125 10.421875 -28.546875 10.359375 -30.953125 C 10.296875 -33.359375 10.082031 -35.632812 9.71875 -37.78125 C 8.707031 -37.363281 7.65625 -36.675781 6.5625 -35.71875 C 5.476562 -34.757812 4.445312 -33.566406 3.46875 -32.140625 C 2.488281 -30.710938 1.644531 -29.050781 0.9375 -27.15625 C 0.238281 -25.257812 -0.226562 -23.171875 -0.46875 -20.890625 C -0.71875 -18.609375 -0.648438 -16.144531 -0.265625 -13.5 Z M -0.265625 -13.5 "/></g></g></g><g fill="#f13d84" fill-opacity="1"><g transform="translate(175.633091, 155.817484)"><g><path d="M 14.484375 0.125 L 1.109375 0.015625 L 1.453125 -37.140625 L 14.828125 -37.03125 L 14.71875 -25.890625 C 15.570312 -26.546875 16.644531 -27.101562 17.9375 -27.5625 C 19.226562 -28.019531 20.738281 -28.238281 22.46875 -28.21875 C 24.101562 -28.207031 25.484375 -27.941406 26.609375 -27.421875 C 27.734375 -26.910156 28.628906 -26.222656 29.296875 -25.359375 C 29.972656 -24.503906 30.460938 -23.550781 30.765625 -22.5 C 31.066406 -21.457031 31.210938 -20.414062 31.203125 -19.375 L 31.03125 0.28125 L 17.609375 0.15625 L 17.796875 -21.015625 C 17.804688 -22.054688 17.734375 -22.914062 17.578125 -23.59375 C 17.421875 -24.28125 16.984375 -24.628906 16.265625 -24.640625 C 15.742188 -24.640625 15.378906 -24.445312 15.171875 -24.0625 C 14.960938 -23.6875 14.828125 -23.226562 14.765625 -22.6875 C 14.710938 -22.144531 14.679688 -21.597656 14.671875 -21.046875 Z M 14.484375 0.125 "/></g></g></g><g fill="#f13d84" fill-opacity="1"><g transform="translate(206.460078, 156.14698)"><g><path d="M 16.09375 3.234375 C 13.8125 2.878906 11.773438 2.210938 9.984375 1.234375 C 8.191406 0.253906 6.6875 -0.976562 5.46875 -2.46875 C 4.257812 -3.957031 3.40625 -5.648438 2.90625 -7.546875 C 2.414062 -9.441406 2.335938 -11.46875 2.671875 -13.625 C 3.117188 -16.507812 4.109375 -18.941406 5.640625 -20.921875 C 7.171875 -22.898438 9.113281 -24.320312 11.46875 -25.1875 C 13.820312 -26.0625 16.441406 -26.273438 19.328125 -25.828125 C 20.847656 -25.597656 22.285156 -25.179688 23.640625 -24.578125 C 25.003906 -23.984375 26.191406 -23.1875 27.203125 -22.1875 C 28.210938 -21.1875 28.953125 -19.984375 29.421875 -18.578125 C 29.898438 -17.171875 29.992188 -15.539062 29.703125 -13.6875 C 29.484375 -12.289062 29.035156 -11.078125 28.359375 -10.046875 C 27.679688 -9.015625 26.835938 -8.164062 25.828125 -7.5 C 24.816406 -6.832031 23.738281 -6.375 22.59375 -6.125 C 21.457031 -5.875 20.316406 -5.835938 19.171875 -6.015625 C 18.453125 -6.128906 17.742188 -6.320312 17.046875 -6.59375 C 16.347656 -6.863281 15.691406 -7.175781 15.078125 -7.53125 C 15.390625 -6.019531 16.023438 -4.796875 16.984375 -3.859375 C 17.941406 -2.921875 19.269531 -2.320312 20.96875 -2.0625 C 21.550781 -1.96875 22.1875 -2.003906 22.875 -2.171875 C 23.570312 -2.347656 24.242188 -2.601562 24.890625 -2.9375 C 25.546875 -3.28125 26.113281 -3.671875 26.59375 -4.109375 C 27.070312 -4.546875 27.375 -5 27.5 -5.46875 C 28.0625 -5.175781 28.382812 -4.640625 28.46875 -3.859375 C 28.5625 -3.078125 28.40625 -2.210938 28 -1.265625 C 27.59375 -0.316406 26.890625 0.5625 25.890625 1.375 C 24.898438 2.1875 23.59375 2.785156 21.96875 3.171875 C 20.34375 3.566406 18.382812 3.585938 16.09375 3.234375 Z M 14.859375 -9.109375 C 15.765625 -9.484375 16.628906 -10.222656 17.453125 -11.328125 C 18.285156 -12.429688 19.003906 -13.734375 19.609375 -15.234375 C 20.210938 -16.734375 20.628906 -18.226562 20.859375 -19.71875 C 21.066406 -21.082031 21.054688 -22.070312 20.828125 -22.6875 C 20.597656 -23.300781 20.300781 -23.632812 19.9375 -23.6875 C 19.425781 -23.769531 18.914062 -23.535156 18.40625 -22.984375 C 17.90625 -22.441406 17.445312 -21.664062 17.03125 -20.65625 C 16.613281 -19.65625 16.238281 -18.515625 15.90625 -17.234375 C 15.570312 -15.960938 15.300781 -14.648438 15.09375 -13.296875 C 14.976562 -12.546875 14.898438 -11.820312 14.859375 -11.125 C 14.828125 -10.425781 14.828125 -9.753906 14.859375 -9.109375 Z M 14.859375 -9.109375 "/></g></g></g><g fill="#f13d84" fill-opacity="1"><g transform="translate(152.690815, 252.267998)"><g><path d="M 17.96875 -1.953125 C 15.375 -1.554688 12.945312 -1.675781 10.6875 -2.3125 C 8.425781 -2.945312 6.398438 -4.007812 4.609375 -5.5 C 2.816406 -6.988281 1.335938 -8.832031 0.171875 -11.03125 C -0.992188 -13.238281 -1.78125 -15.710938 -2.1875 -18.453125 C -2.601562 -21.191406 -2.578125 -23.785156 -2.109375 -26.234375 C -1.640625 -28.691406 -0.769531 -30.890625 0.5 -32.828125 C 1.78125 -34.773438 3.40625 -36.382812 5.375 -37.65625 C 7.351562 -38.9375 9.640625 -39.773438 12.234375 -40.171875 C 14.585938 -40.515625 16.648438 -40.617188 18.421875 -40.484375 C 20.191406 -40.347656 21.675781 -40.097656 22.875 -39.734375 C 24.070312 -39.378906 24.96875 -39.046875 25.5625 -38.734375 C 26.15625 -38.421875 26.453125 -38.265625 26.453125 -38.265625 L 22.59375 -17.921875 L 22.25 -17.875 C 22.039062 -18.675781 21.722656 -19.726562 21.296875 -21.03125 C 20.878906 -22.332031 20.347656 -23.742188 19.703125 -25.265625 C 19.066406 -26.785156 18.34375 -28.28125 17.53125 -29.75 C 16.71875 -31.226562 15.832031 -32.566406 14.875 -33.765625 C 13.925781 -34.960938 12.914062 -35.890625 11.84375 -36.546875 C 10.769531 -37.203125 9.65625 -37.441406 8.5 -37.265625 C 7.238281 -37.078125 6.335938 -36.34375 5.796875 -35.0625 C 5.253906 -33.789062 5.128906 -32.175781 5.421875 -30.21875 C 5.910156 -26.96875 6.820312 -24.144531 8.15625 -21.75 C 9.5 -19.351562 11.082031 -17.394531 12.90625 -15.875 C 14.738281 -14.363281 16.660156 -13.289062 18.671875 -12.65625 C 20.691406 -12.019531 22.617188 -11.832031 24.453125 -12.09375 C 25.390625 -12.226562 26.269531 -12.453125 27.09375 -12.765625 C 27.925781 -13.078125 28.617188 -13.484375 29.171875 -13.984375 C 29.734375 -14.484375 30.0625 -15.035156 30.15625 -15.640625 C 30.738281 -14.078125 30.828125 -12.539062 30.421875 -11.03125 C 30.015625 -9.53125 29.238281 -8.148438 28.09375 -6.890625 C 26.945312 -5.640625 25.503906 -4.582031 23.765625 -3.71875 C 22.035156 -2.851562 20.101562 -2.265625 17.96875 -1.953125 Z M 17.96875 -1.953125 "/></g></g></g><g fill="#f13d84" fill-opacity="1"><g transform="translate(183.890492, 248.027112)"><g><path d="M -0.1875 -37.171875 L 12.546875 -37.625 L 13.59375 -7.5 C 13.632812 -6.46875 13.804688 -5.445312 14.109375 -4.4375 C 14.421875 -3.4375 14.882812 -2.644531 15.5 -2.0625 C 14.976562 -1.445312 14.242188 -0.890625 13.296875 -0.390625 C 12.359375 0.0976562 11.289062 0.363281 10.09375 0.40625 C 7.175781 0.5 4.921875 -0.265625 3.328125 -1.890625 C 1.742188 -3.523438 0.894531 -6.039062 0.78125 -9.4375 Z M -0.1875 -37.171875 "/></g></g></g><g fill="#f13d84" fill-opacity="1"><g transform="translate(198.10067, 247.473777)"><g><path d="M 2.625 -27.609375 L 16 -27.078125 L 14.890625 0.59375 L 1.515625 0.0625 Z M 2.484375 -34.0625 C 2.546875 -35.476562 2.882812 -36.5 3.5 -37.125 C 4.125 -37.75 4.976562 -38.117188 6.0625 -38.234375 C 7.144531 -38.347656 8.394531 -38.378906 9.8125 -38.328125 C 11.207031 -38.265625 12.4375 -38.128906 13.5 -37.921875 C 14.5625 -37.722656 15.375 -37.285156 15.9375 -36.609375 C 16.507812 -35.941406 16.765625 -34.898438 16.703125 -33.484375 C 16.660156 -32.347656 16.445312 -31.472656 16.0625 -30.859375 C 15.675781 -30.242188 15.15625 -29.8125 14.5 -29.5625 C 13.84375 -29.3125 13.082031 -29.179688 12.21875 -29.171875 C 11.363281 -29.160156 10.4375 -29.175781 9.4375 -29.21875 C 8.394531 -29.257812 7.441406 -29.316406 6.578125 -29.390625 C 5.722656 -29.472656 4.976562 -29.664062 4.34375 -29.96875 C 3.707031 -30.269531 3.226562 -30.742188 2.90625 -31.390625 C 2.582031 -32.035156 2.441406 -32.925781 2.484375 -34.0625 Z M 2.484375 -34.0625 "/></g></g></g><g fill="#f13d84" fill-opacity="1"><g transform="translate(213.417594, 247.619534)"><g><path d="M 12.890625 11.4375 L -0.328125 9.390625 L 5.328125 -27.1875 L 21.15625 -24.75 C 22.820312 -24.488281 24.394531 -24 25.875 -23.28125 C 27.351562 -22.5625 28.625 -21.578125 29.6875 -20.328125 C 30.75 -19.085938 31.503906 -17.535156 31.953125 -15.671875 C 32.398438 -13.816406 32.425781 -11.609375 32.03125 -9.046875 C 31.675781 -6.734375 31.023438 -4.769531 30.078125 -3.15625 C 29.128906 -1.550781 27.957031 -0.273438 26.5625 0.671875 C 25.175781 1.617188 23.660156 2.25 22.015625 2.5625 C 20.378906 2.875 18.679688 2.890625 16.921875 2.609375 L 14.3125 2.21875 Z M 18.28125 -23.40625 L 14.5625 0.59375 C 14.8125 0.863281 15.101562 1.023438 15.4375 1.078125 C 16.007812 1.160156 16.472656 0.894531 16.828125 0.28125 C 17.179688 -0.320312 17.46875 -1.113281 17.6875 -2.09375 C 17.914062 -3.070312 18.109375 -4.0625 18.265625 -5.0625 C 18.597656 -7.226562 18.929688 -9.382812 19.265625 -11.53125 C 19.597656 -13.6875 19.929688 -15.835938 20.265625 -17.984375 C 20.554688 -19.898438 20.675781 -21.300781 20.625 -22.1875 C 20.570312 -23.070312 20.117188 -23.578125 19.265625 -23.703125 C 18.953125 -23.753906 18.625 -23.65625 18.28125 -23.40625 Z M 18.28125 -23.40625 "/></g></g></g><g clip-path="url(#bf4a7493ee)"><g clip-path="url(#923ba409be)"><g clip-path="url(#d90694dcd4)"><path fill="#4a0018" d="M 272.582031 283.113281 C 271.03125 281.140625 267.960938 278.597656 265.796875 277.8125 L 117.726562 89.132812 C 114.460938 84.96875 115.1875 78.929688 119.351562 75.664062 C 122.050781 73.542969 124.691406 73.722656 127.671875 76.226562 C 129.109375 77.4375 130.359375 79.066406 131.375 81.066406 L 152.851562 123.335938 C 153.269531 124.046875 153.578125 124.894531 153.90625 125.789062 C 154.699219 127.972656 155.601562 130.441406 158.375 131.144531 L 169.988281 134.089844 C 173.640625 135.015625 176.179688 138.292969 176.171875 142.054688 L 176.15625 150.035156 C 176.140625 155.980469 180.167969 161.113281 185.949219 162.519531 L 193.632812 164.382812 C 197.328125 165.277344 199.90625 168.5625 199.898438 172.371094 L 199.878906 180.265625 C 199.867188 186.21875 203.898438 191.351562 209.679688 192.75 L 217.347656 194.609375 C 221.046875 195.503906 223.625 198.789062 223.617188 202.59375 L 223.601562 210.492188 C 223.585938 216.441406 227.613281 221.578125 233.398438 222.976562 L 241.074219 224.835938 C 244.769531 225.734375 247.347656 229.019531 247.339844 232.824219 L 247.316406 242.425781 C 247.304688 247.386719 250.199219 251.957031 254.695312 254.058594 L 274.667969 263.414062 C 275.894531 265.355469 279.105469 267.8125 281.402344 268.886719 C 284.539062 270.351562 287.757812 270.089844 288.59375 268.296875 C 289.433594 266.507812 287.570312 263.867188 284.4375 262.402344 C 282.183594 261.347656 278.351562 260.472656 276.054688 260.722656 L 255.980469 251.316406 C 252.550781 249.710938 250.339844 246.222656 250.347656 242.433594 L 250.371094 232.832031 C 250.382812 227.617188 246.851562 223.121094 241.785156 221.894531 L 234.109375 220.035156 C 229.695312 218.964844 226.621094 215.042969 226.628906 210.5 L 226.648438 202.601562 C 226.660156 197.390625 223.125 192.894531 218.0625 191.664062 L 210.394531 189.808594 C 205.976562 188.738281 202.898438 184.816406 202.910156 180.273438 L 202.929688 172.378906 C 202.9375 167.164062 199.410156 162.667969 194.34375 161.441406 L 186.664062 159.578125 C 182.25 158.507812 179.175781 154.585938 179.183594 150.042969 L 179.203125 142.0625 C 179.214844 136.90625 175.730469 132.421875 170.734375 131.152344 L 159.121094 128.207031 C 157.957031 127.910156 157.460938 126.703125 156.753906 124.753906 C 156.394531 123.769531 156.023438 122.75 155.511719 121.882812 L 134.074219 79.691406 C 132.871094 77.332031 131.375 75.382812 129.621094 73.910156 C 125.53125 70.472656 121.335938 70.253906 117.480469 73.28125 C 112.003906 77.578125 111.046875 85.527344 115.34375 91.003906 L 263.414062 279.679688 C 263.660156 281.972656 265.398438 285.558594 266.949219 287.535156 C 269.085938 290.257812 272.078125 291.472656 273.632812 290.253906 C 275.1875 289.03125 274.71875 285.835938 272.582031 283.113281 Z M 272.582031 283.113281 " fill-opacity="1" fill-rule="nonzero"/></g></g></g><g fill="#f13d84" fill-opacity="1"><g transform="translate(67.702677, 243.1323)"><g/></g></g><g fill="#f13d84" fill-opacity="1"><g transform="translate(75.512736, 236.511481)"><g><path d="M -5.75 -10.640625 C -6.34375 -11.640625 -6.695312 -12.722656 -6.8125 -13.890625 C -6.9375 -15.066406 -6.835938 -16.242188 -6.515625 -17.421875 C -6.191406 -18.597656 -5.65625 -19.65625 -4.90625 -20.59375 C -6.9375 -20.90625 -8.8125 -21.519531 -10.53125 -22.4375 C -12.25 -23.351562 -13.664062 -24.734375 -14.78125 -26.578125 C -15.164062 -27.222656 -15.457031 -27.945312 -15.65625 -28.75 C -15.851562 -29.550781 -15.941406 -30.359375 -15.921875 -31.171875 C -15.898438 -31.984375 -15.765625 -32.695312 -15.515625 -33.3125 C -15.265625 -33.9375 -14.882812 -34.398438 -14.375 -34.703125 L 6.34375 -47.171875 C 6.726562 -46.953125 7.082031 -46.695312 7.40625 -46.40625 C 7.726562 -46.125 8.015625 -45.773438 8.265625 -45.359375 C 8.753906 -44.554688 9.003906 -43.722656 9.015625 -42.859375 C 9.035156 -42.003906 8.894531 -41.1875 8.59375 -40.40625 C 8.289062 -39.625 7.894531 -38.925781 7.40625 -38.3125 C 6.914062 -37.707031 6.40625 -37.25 5.875 -36.9375 C 4.6875 -36.21875 3.394531 -35.710938 2 -35.421875 C 0.613281 -35.140625 -0.789062 -34.972656 -2.21875 -34.921875 C -3.644531 -34.878906 -5.035156 -34.84375 -6.390625 -34.8125 C -7.753906 -34.78125 -9.023438 -34.6875 -10.203125 -34.53125 C -11.378906 -34.375 -12.394531 -34.039062 -13.25 -33.53125 C -13.457031 -33.40625 -13.554688 -33.179688 -13.546875 -32.859375 C -13.546875 -32.546875 -13.5 -32.300781 -13.40625 -32.125 C -12.957031 -31.382812 -12.242188 -30.921875 -11.265625 -30.734375 C -10.296875 -30.554688 -9.128906 -30.566406 -7.765625 -30.765625 C -6.410156 -30.972656 -4.929688 -31.253906 -3.328125 -31.609375 C -1.722656 -31.960938 -0.0351562 -32.304688 1.734375 -32.640625 C 3.503906 -32.972656 5.273438 -33.179688 7.046875 -33.265625 C 8.816406 -33.347656 10.535156 -33.21875 12.203125 -32.875 C 13.878906 -32.53125 15.441406 -31.878906 16.890625 -30.921875 C 18.347656 -29.960938 19.628906 -28.566406 20.734375 -26.734375 C 21.984375 -24.648438 22.628906 -22.484375 22.671875 -20.234375 C 22.710938 -17.984375 22.050781 -15.78125 20.6875 -13.625 C 19.332031 -11.476562 17.179688 -9.5 14.234375 -7.6875 C 12.566406 -6.6875 10.796875 -5.9375 8.921875 -5.4375 C 7.054688 -4.9375 5.207031 -4.765625 3.375 -4.921875 C 1.550781 -5.078125 -0.148438 -5.617188 -1.734375 -6.546875 C -3.316406 -7.472656 -4.65625 -8.835938 -5.75 -10.640625 Z M 20.078125 -18.515625 C 19.546875 -19.398438 18.695312 -20.007812 17.53125 -20.34375 C 16.363281 -20.6875 14.96875 -20.84375 13.34375 -20.8125 C 11.71875 -20.789062 9.960938 -20.710938 8.078125 -20.578125 C 6.191406 -20.453125 4.253906 -20.34375 2.265625 -20.25 C 0.273438 -20.164062 -1.671875 -20.226562 -3.578125 -20.4375 C -3.140625 -19.75 -2.445312 -19.023438 -1.5 -18.265625 C -0.550781 -17.503906 0.5625 -16.769531 1.84375 -16.0625 C 3.125 -15.363281 4.492188 -14.75 5.953125 -14.21875 C 7.410156 -13.6875 8.894531 -13.296875 10.40625 -13.046875 C 11.914062 -12.804688 13.359375 -12.757812 14.734375 -12.90625 C 16.109375 -13.0625 17.359375 -13.476562 18.484375 -14.15625 C 19.421875 -14.71875 20.019531 -15.414062 20.28125 -16.25 C 20.550781 -17.09375 20.484375 -17.847656 20.078125 -18.515625 Z M 20.078125 -18.515625 "/></g></g></g><g fill="#f13d84" fill-opacity="1"><g transform="translate(102.284679, 220.854235)"><g><path d="M -10.0625 -25.84375 L 2.140625 -31.375 L 13.578125 -6.15625 L 1.375 -0.625 Z M -13.078125 -31.546875 C -13.660156 -32.835938 -13.816406 -33.898438 -13.546875 -34.734375 C -13.285156 -35.566406 -12.691406 -36.28125 -11.765625 -36.875 C -10.847656 -37.46875 -9.742188 -38.054688 -8.453125 -38.640625 C -7.171875 -39.222656 -6.007812 -39.660156 -4.96875 -39.953125 C -3.9375 -40.242188 -3.015625 -40.21875 -2.203125 -39.875 C -1.398438 -39.539062 -0.707031 -38.726562 -0.125 -37.4375 C 0.34375 -36.40625 0.546875 -35.523438 0.484375 -34.796875 C 0.421875 -34.066406 0.15625 -33.441406 -0.3125 -32.921875 C -0.789062 -32.410156 -1.410156 -31.957031 -2.171875 -31.5625 C -2.941406 -31.164062 -3.785156 -30.757812 -4.703125 -30.34375 C -5.648438 -29.914062 -6.523438 -29.539062 -7.328125 -29.21875 C -8.128906 -28.90625 -8.878906 -28.738281 -9.578125 -28.71875 C -10.285156 -28.707031 -10.925781 -28.914062 -11.5 -29.34375 C -12.082031 -29.78125 -12.609375 -30.515625 -13.078125 -31.546875 Z M -13.078125 -31.546875 "/></g></g></g><g fill="#f13d84" fill-opacity="1"><g transform="translate(116.278192, 214.14934)"><g><path d="M -5.578125 -18.515625 C -6.234375 -20.472656 -6.25 -22.257812 -5.625 -23.875 C -5.007812 -25.5 -3.875 -26.929688 -2.21875 -28.171875 C -0.570312 -29.421875 1.46875 -30.453125 3.90625 -31.265625 C 5.25 -31.710938 6.648438 -32.0625 8.109375 -32.3125 C 9.578125 -32.5625 10.984375 -32.644531 12.328125 -32.5625 C 13.671875 -32.476562 14.835938 -32.148438 15.828125 -31.578125 C 16.828125 -31.003906 17.523438 -30.125 17.921875 -28.9375 C 18.210938 -28.0625 18.21875 -27.15625 17.9375 -26.21875 C 17.65625 -25.289062 17.09375 -24.625 16.25 -24.21875 C 15.71875 -24.632812 14.867188 -24.988281 13.703125 -25.28125 C 12.535156 -25.570312 11.207031 -25.785156 9.71875 -25.921875 C 8.238281 -26.066406 6.722656 -26.144531 5.171875 -26.15625 C 3.617188 -26.164062 2.179688 -26.109375 0.859375 -25.984375 C -0.453125 -25.859375 -1.507812 -25.664062 -2.3125 -25.40625 C -2.707031 -25.269531 -3.117188 -25.085938 -3.546875 -24.859375 C -3.984375 -24.628906 -4.140625 -24.316406 -4.015625 -23.921875 C -3.878906 -23.515625 -3.367188 -23.300781 -2.484375 -23.28125 C -1.609375 -23.257812 -0.484375 -23.316406 0.890625 -23.453125 C 2.273438 -23.585938 3.796875 -23.722656 5.453125 -23.859375 C 7.117188 -24.003906 8.816406 -24.050781 10.546875 -24 C 12.273438 -23.945312 13.921875 -23.707031 15.484375 -23.28125 C 17.046875 -22.863281 18.421875 -22.175781 19.609375 -21.21875 C 20.804688 -20.257812 21.6875 -18.929688 22.25 -17.234375 C 23.289062 -14.117188 22.941406 -11.367188 21.203125 -8.984375 C 19.460938 -6.597656 16.632812 -4.75 12.71875 -3.4375 C 10.570312 -2.726562 8.507812 -2.359375 6.53125 -2.328125 C 4.550781 -2.304688 2.835938 -2.648438 1.390625 -3.359375 C -0.046875 -4.078125 -1.03125 -5.226562 -1.5625 -6.8125 C -1.78125 -7.5 -1.867188 -8.191406 -1.828125 -8.890625 C -1.796875 -9.585938 -1.625 -10.222656 -1.3125 -10.796875 C -1.007812 -11.367188 -0.566406 -11.769531 0.015625 -12 C 0.796875 -11.363281 1.769531 -10.773438 2.9375 -10.234375 C 4.113281 -9.703125 5.390625 -9.226562 6.765625 -8.8125 C 8.140625 -8.40625 9.53125 -8.078125 10.9375 -7.828125 C 12.351562 -7.585938 13.675781 -7.472656 14.90625 -7.484375 C 16.144531 -7.503906 17.203125 -7.660156 18.078125 -7.953125 C 18.679688 -8.148438 19.066406 -8.40625 19.234375 -8.71875 C 19.410156 -9.039062 19.441406 -9.378906 19.328125 -9.734375 C 19.148438 -10.265625 18.632812 -10.609375 17.78125 -10.765625 C 16.925781 -10.929688 15.84375 -11.019531 14.53125 -11.03125 C 13.226562 -11.039062 11.796875 -11.039062 10.234375 -11.03125 C 8.671875 -11.019531 7.085938 -11.09375 5.484375 -11.25 C 3.878906 -11.414062 2.335938 -11.742188 0.859375 -12.234375 C -0.609375 -12.734375 -1.90625 -13.476562 -3.03125 -14.46875 C -4.164062 -15.457031 -5.015625 -16.804688 -5.578125 -18.515625 Z M -5.578125 -18.515625 "/></g></g></g><g fill="#f13d84" fill-opacity="1"><g transform="translate(141.162469, 206.102922)"><g><path d="M -4.125 -25.90625 L -6.015625 -25.484375 L -6.328125 -26.90625 C -5.191406 -27.5 -4 -28.296875 -2.75 -29.296875 C -1.507812 -30.304688 -0.3125 -31.414062 0.84375 -32.625 C 2 -33.832031 3 -35.019531 3.84375 -36.1875 C 4.6875 -37.351562 5.265625 -38.390625 5.578125 -39.296875 L 5.9375 -39.375 L 7.984375 -30.125 L 9.9375 -30.546875 L 10.265625 -29.078125 L 8.3125 -28.65625 L 12.453125 -9.9375 C 12.671875 -8.9375 13.023438 -7.96875 13.515625 -7.03125 C 14.003906 -6.09375 14.601562 -5.394531 15.3125 -4.9375 C 14.90625 -4.238281 14.273438 -3.5625 13.421875 -2.90625 C 12.578125 -2.25 11.578125 -1.789062 10.421875 -1.53125 C 7.566406 -0.90625 5.210938 -1.25 3.359375 -2.5625 C 1.515625 -3.882812 0.226562 -6.207031 -0.5 -9.53125 Z M -4.125 -25.90625 "/></g></g></g><g fill="#f13d84" fill-opacity="1"><g transform="translate(156.071302, 202.432155)"><g><path d="M 16.359375 -1.078125 C 14.078125 -0.816406 11.941406 -0.925781 9.953125 -1.40625 C 7.960938 -1.882812 6.1875 -2.6875 4.625 -3.8125 C 3.070312 -4.9375 1.8125 -6.347656 0.84375 -8.046875 C -0.125 -9.742188 -0.734375 -11.671875 -0.984375 -13.828125 C -1.304688 -16.742188 -0.988281 -19.359375 -0.03125 -21.671875 C 0.925781 -23.984375 2.425781 -25.863281 4.46875 -27.3125 C 6.519531 -28.769531 8.992188 -29.660156 11.890625 -29.984375 C 13.421875 -30.148438 14.921875 -30.117188 16.390625 -29.890625 C 17.859375 -29.671875 19.210938 -29.210938 20.453125 -28.515625 C 21.691406 -27.828125 22.71875 -26.863281 23.53125 -25.625 C 24.351562 -24.394531 24.867188 -22.847656 25.078125 -20.984375 C 25.234375 -19.578125 25.117188 -18.285156 24.734375 -17.109375 C 24.359375 -15.929688 23.769531 -14.890625 22.96875 -13.984375 C 22.164062 -13.085938 21.242188 -12.367188 20.203125 -11.828125 C 19.171875 -11.285156 18.078125 -10.945312 16.921875 -10.8125 C 16.203125 -10.738281 15.46875 -10.738281 14.71875 -10.8125 C 13.976562 -10.894531 13.269531 -11.023438 12.59375 -11.203125 C 13.28125 -9.835938 14.207031 -8.828125 15.375 -8.171875 C 16.550781 -7.515625 17.992188 -7.28125 19.703125 -7.46875 C 20.296875 -7.539062 20.898438 -7.75 21.515625 -8.09375 C 22.140625 -8.445312 22.722656 -8.867188 23.265625 -9.359375 C 23.804688 -9.847656 24.25 -10.363281 24.59375 -10.90625 C 24.945312 -11.457031 25.125 -11.976562 25.125 -12.46875 C 25.726562 -12.332031 26.175781 -11.898438 26.46875 -11.171875 C 26.769531 -10.441406 26.84375 -9.5625 26.6875 -8.53125 C 26.539062 -7.507812 26.09375 -6.476562 25.34375 -5.4375 C 24.601562 -4.40625 23.5 -3.484375 22.03125 -2.671875 C 20.5625 -1.867188 18.671875 -1.335938 16.359375 -1.078125 Z M 11.96875 -12.6875 C 12.738281 -13.28125 13.375 -14.21875 13.875 -15.5 C 14.382812 -16.789062 14.738281 -18.234375 14.9375 -19.828125 C 15.132812 -21.429688 15.144531 -22.984375 14.96875 -24.484375 C 14.820312 -25.859375 14.554688 -26.8125 14.171875 -27.34375 C 13.785156 -27.875 13.414062 -28.117188 13.0625 -28.078125 C 12.539062 -28.015625 12.109375 -27.648438 11.765625 -26.984375 C 11.421875 -26.328125 11.175781 -25.460938 11.03125 -24.390625 C 10.894531 -23.316406 10.832031 -22.117188 10.84375 -20.796875 C 10.851562 -19.484375 10.9375 -18.148438 11.09375 -16.796875 C 11.175781 -16.035156 11.289062 -15.3125 11.4375 -14.625 C 11.59375 -13.9375 11.769531 -13.289062 11.96875 -12.6875 Z M 11.96875 -12.6875 "/></g></g></g><g fill="#f13d84" fill-opacity="1"><g transform="translate(182.772023, 199.36964)"><g><path d="M 1.109375 0.03125 L 1.71875 -27.65625 L 15.09375 -27.375 L 14.890625 -18.265625 C 14.921875 -19.429688 15.164062 -20.582031 15.625 -21.71875 C 16.082031 -22.863281 16.722656 -23.90625 17.546875 -24.84375 C 18.367188 -25.789062 19.332031 -26.546875 20.4375 -27.109375 C 21.539062 -27.671875 22.765625 -27.9375 24.109375 -27.90625 C 25.046875 -27.882812 25.929688 -27.65625 26.765625 -27.21875 C 27.597656 -26.78125 28.117188 -26.3125 28.328125 -25.8125 L 23.09375 -8.9375 L 22.71875 -8.9375 C 22.738281 -9.976562 22.628906 -11.039062 22.390625 -12.125 C 22.160156 -13.207031 21.804688 -14.207031 21.328125 -15.125 C 20.859375 -16.039062 20.28125 -16.773438 19.59375 -17.328125 C 18.914062 -17.890625 18.15625 -18.179688 17.3125 -18.203125 C 16.539062 -18.222656 15.9375 -18.015625 15.5 -17.578125 C 15.070312 -17.140625 14.851562 -16.660156 14.84375 -16.140625 L 14.484375 0.3125 Z M 1.109375 0.03125 "/></g></g></g><g fill="#f13d84" fill-opacity="1"><g transform="translate(209.243518, 199.700767)"><g><path d="M 14.28125 2.375 L 1.09375 0.1875 L 7.203125 -36.46875 L 20.390625 -34.28125 L 18.5625 -23.28125 C 19.5 -23.789062 20.644531 -24.171875 22 -24.421875 C 23.351562 -24.679688 24.882812 -24.664062 26.59375 -24.375 C 28.207031 -24.101562 29.523438 -23.628906 30.546875 -22.953125 C 31.578125 -22.273438 32.359375 -21.457031 32.890625 -20.5 C 33.421875 -19.539062 33.753906 -18.523438 33.890625 -17.453125 C 34.023438 -16.378906 34.007812 -15.328125 33.84375 -14.296875 L 30.609375 5.09375 L 17.375 2.890625 L 20.859375 -18 C 21.023438 -19.019531 21.082031 -19.878906 21.03125 -20.578125 C 20.988281 -21.273438 20.613281 -21.679688 19.90625 -21.796875 C 19.394531 -21.878906 19.003906 -21.75 18.734375 -21.40625 C 18.460938 -21.0625 18.253906 -20.628906 18.109375 -20.109375 C 17.960938 -19.585938 17.847656 -19.054688 17.765625 -18.515625 Z M 14.28125 2.375 "/></g></g></g><g fill="#f13d84" fill-opacity="1"><g transform="translate(239.628905, 204.758971)"><g><path d="M 4.796875 -13.015625 C 5.691406 -15.796875 7.039062 -18.039062 8.84375 -19.75 C 10.644531 -21.457031 12.742188 -22.5625 15.140625 -23.0625 C 17.535156 -23.5625 20.078125 -23.378906 22.765625 -22.515625 C 25.484375 -21.628906 27.671875 -20.28125 29.328125 -18.46875 C 30.984375 -16.664062 32.039062 -14.546875 32.5 -12.109375 C 32.957031 -9.671875 32.738281 -7.0625 31.84375 -4.28125 C 30.9375 -1.5 29.582031 0.75 27.78125 2.46875 C 25.976562 4.195312 23.875 5.3125 21.46875 5.8125 C 19.070312 6.320312 16.515625 6.132812 13.796875 5.25 C 11.109375 4.382812 8.9375 3.046875 7.28125 1.234375 C 5.632812 -0.578125 4.582031 -2.707031 4.125 -5.15625 C 3.664062 -7.613281 3.890625 -10.234375 4.796875 -13.015625 Z M 22.4375 -21.375 C 22.0625 -21.5 21.65625 -21.375 21.21875 -21 C 20.789062 -20.625 20.367188 -19.789062 19.953125 -18.5 C 19.921875 -18.382812 19.800781 -18.015625 19.59375 -17.390625 C 19.394531 -16.765625 19.15625 -16.015625 18.875 -15.140625 C 18.59375 -14.273438 18.304688 -13.394531 18.015625 -12.5 C 17.734375 -11.613281 17.488281 -10.851562 17.28125 -10.21875 C 17.070312 -9.582031 16.953125 -9.207031 16.921875 -9.09375 C 16.878906 -8.976562 16.753906 -8.601562 16.546875 -7.96875 C 16.347656 -7.332031 16.101562 -6.566406 15.8125 -5.671875 C 15.53125 -4.785156 15.25 -3.90625 14.96875 -3.03125 C 14.6875 -2.164062 14.441406 -1.421875 14.234375 -0.796875 C 14.035156 -0.171875 13.914062 0.195312 13.875 0.3125 C 13.457031 1.601562 13.316406 2.523438 13.453125 3.078125 C 13.585938 3.628906 13.84375 3.96875 14.21875 4.09375 C 14.625 4.21875 15.035156 4.09375 15.453125 3.71875 C 15.878906 3.34375 16.300781 2.507812 16.71875 1.21875 C 16.757812 1.101562 16.878906 0.734375 17.078125 0.109375 C 17.285156 -0.515625 17.53125 -1.257812 17.8125 -2.125 C 18.09375 -3 18.375 -3.878906 18.65625 -4.765625 C 18.945312 -5.660156 19.191406 -6.425781 19.390625 -7.0625 C 19.597656 -7.695312 19.722656 -8.070312 19.765625 -8.1875 C 19.796875 -8.300781 19.914062 -8.675781 20.125 -9.3125 C 20.332031 -9.945312 20.578125 -10.707031 20.859375 -11.59375 C 21.148438 -12.488281 21.4375 -13.367188 21.71875 -14.234375 C 22 -15.109375 22.238281 -15.859375 22.4375 -16.484375 C 22.644531 -17.109375 22.765625 -17.476562 22.796875 -17.59375 C 23.210938 -18.882812 23.359375 -19.804688 23.234375 -20.359375 C 23.109375 -20.910156 22.84375 -21.25 22.4375 -21.375 Z M 22.4375 -21.375 "/></g></g></g><g fill="#f13d84" fill-opacity="1"><g transform="translate(266.548811, 213.361913)"><g><path d="M 6.578125 -12.203125 C 7.859375 -14.835938 9.507812 -16.867188 11.53125 -18.296875 C 13.550781 -19.734375 15.785156 -20.53125 18.234375 -20.6875 C 20.679688 -20.851562 23.171875 -20.316406 25.703125 -19.078125 C 28.273438 -17.828125 30.25 -16.1875 31.625 -14.15625 C 33.007812 -12.132812 33.757812 -9.882812 33.875 -7.40625 C 33.988281 -4.9375 33.40625 -2.382812 32.125 0.25 C 30.84375 2.875 29.1875 4.910156 27.15625 6.359375 C 25.125 7.816406 22.882812 8.625 20.4375 8.78125 C 18 8.9375 15.492188 8.390625 12.921875 7.140625 C 10.390625 5.898438 8.429688 4.269531 7.046875 2.25 C 5.660156 0.226562 4.914062 -2.023438 4.8125 -4.515625 C 4.707031 -7.015625 5.296875 -9.578125 6.578125 -12.203125 Z M 25.21875 -18 C 24.863281 -18.175781 24.445312 -18.109375 23.96875 -17.796875 C 23.488281 -17.492188 22.953125 -16.734375 22.359375 -15.515625 C 22.304688 -15.398438 22.132812 -15.046875 21.84375 -14.453125 C 21.5625 -13.867188 21.21875 -13.164062 20.8125 -12.34375 C 20.414062 -11.519531 20.007812 -10.6875 19.59375 -9.84375 C 19.1875 -9.007812 18.835938 -8.289062 18.546875 -7.6875 C 18.253906 -7.09375 18.082031 -6.738281 18.03125 -6.625 C 17.976562 -6.507812 17.800781 -6.148438 17.5 -5.546875 C 17.207031 -4.953125 16.859375 -4.238281 16.453125 -3.40625 C 16.046875 -2.570312 15.640625 -1.738281 15.234375 -0.90625 C 14.835938 -0.0820312 14.492188 0.617188 14.203125 1.203125 C 13.921875 1.796875 13.75 2.148438 13.6875 2.265625 C 13.09375 3.484375 12.820312 4.375 12.875 4.9375 C 12.9375 5.5 13.144531 5.867188 13.5 6.046875 C 13.882812 6.234375 14.3125 6.171875 14.78125 5.859375 C 15.25 5.554688 15.78125 4.796875 16.375 3.578125 C 16.4375 3.460938 16.609375 3.109375 16.890625 2.515625 C 17.179688 1.929688 17.523438 1.222656 17.921875 0.390625 C 18.328125 -0.429688 18.734375 -1.257812 19.140625 -2.09375 C 19.546875 -2.925781 19.894531 -3.640625 20.1875 -4.234375 C 20.488281 -4.835938 20.664062 -5.195312 20.71875 -5.3125 C 20.769531 -5.425781 20.941406 -5.78125 21.234375 -6.375 C 21.523438 -6.976562 21.875 -7.695312 22.28125 -8.53125 C 22.695312 -9.375 23.101562 -10.207031 23.5 -11.03125 C 23.90625 -11.851562 24.25 -12.554688 24.53125 -13.140625 C 24.820312 -13.734375 24.992188 -14.085938 25.046875 -14.203125 C 25.640625 -15.421875 25.910156 -16.3125 25.859375 -16.875 C 25.816406 -17.4375 25.601562 -17.8125 25.21875 -18 Z M 25.21875 -18 "/></g></g></g><g fill="#f13d84" fill-opacity="1"><g transform="translate(291.990541, 225.617362)"><g><path d="M 8.265625 -11.140625 C 9.597656 -13.085938 11.054688 -14.609375 12.640625 -15.703125 C 14.222656 -16.796875 15.867188 -17.515625 17.578125 -17.859375 C 19.296875 -18.203125 20.976562 -18.1875 22.625 -17.8125 C 24.28125 -17.445312 25.847656 -16.765625 27.328125 -15.765625 L 29.5 -14.28125 L 34.421875 -21.5 L 45.484375 -13.96875 L 24.5625 16.734375 L 11.328125 7.71875 C 9.941406 6.769531 8.734375 5.648438 7.703125 4.359375 C 6.671875 3.078125 5.941406 1.648438 5.515625 0.078125 C 5.085938 -1.492188 5.070312 -3.21875 5.46875 -5.09375 C 5.875 -6.96875 6.804688 -8.984375 8.265625 -11.140625 Z M 22.8125 -9.40625 C 21.519531 -7.5 20.222656 -5.59375 18.921875 -3.6875 C 17.617188 -1.78125 16.320312 0.125 15.03125 2.03125 C 13.945312 3.613281 13.242188 4.816406 12.921875 5.640625 C 12.597656 6.472656 12.785156 7.128906 13.484375 7.609375 C 13.742188 7.785156 14.078125 7.832031 14.484375 7.75 L 28.59375 -12.9375 C 28.519531 -13.257812 28.332031 -13.523438 28.03125 -13.734375 C 27.582031 -14.046875 27.054688 -14.003906 26.453125 -13.609375 C 25.859375 -13.210938 25.25 -12.625 24.625 -11.84375 C 24.007812 -11.070312 23.40625 -10.257812 22.8125 -9.40625 Z M 22.8125 -9.40625 "/></g></g></g></svg>