<?xml version="1.0" encoding="UTF-8"?>
<svg id="Layer_1" data-name="Layer 1" xmlns="http://www.w3.org/2000/svg" xmlns:xlink="http://www.w3.org/1999/xlink" viewBox="0 0 510.02 418.23">
  <defs>
    <style>
      .cls-1 {
        fill: #f13d84;
      }

      .cls-2 {
        fill: none;
      }

      .cls-3 {
        clip-path: url(#clippath-1);
      }

      .cls-4 {
        fill: #4a0018;
      }

      .cls-5 {
        clip-path: url(#clippath-2);
      }

      .cls-6 {
        clip-path: url(#clippath);
      }
    </style>
    <clipPath id="clippath">
      <rect class="cls-2" x="6.95" y="66.24" width="494.67" height="286.67"/>
    </clipPath>
    <clipPath id="clippath-1">
      <rect class="cls-2" x="23.51" y="32.11" width="463" height="354" transform="translate(-27.97 39.77) rotate(-8.45)"/>
    </clipPath>
    <clipPath id="clippath-2">
      <rect class="cls-2" x="23.51" y="32.11" width="463" height="354" transform="translate(-27.97 39.77) rotate(-8.45)"/>
    </clipPath>
  </defs>
  <path class="cls-1" d="M50.32,237.09l-3.67.56-14.6-93.56,119.79-18.71,14.6,93.56-3.67.58c-1.66-10.54-4.29-20.01-7.9-28.4-3.6-8.39-7.85-15.77-12.75-22.15-4.91-6.39-10.07-11.73-15.5-16.04-5.42-4.3-10.76-7.64-16.02-10-5.27-2.38-10.14-3.77-14.6-4.19,1.33,8.58,3.32,17.5,5.96,26.75,2.65,9.24,5.76,18.4,9.33,27.48,3.58,9.08,7.39,17.89,11.42,26.42,4.03,8.53,8.1,16.39,12.23,23.58,4.13,7.2,8.11,13.52,11.96,18.98,3.84,5.46,7.34,9.64,10.5,12.54l-84.48,13.19c2.13-3.73,4.19-8.78,6.19-15.15,2-6.36,3.86-13.59,5.6-21.71,1.73-8.11,3.2-16.83,4.4-26.17,1.19-9.34,2.05-18.88,2.56-28.6.53-9.73.61-19.4.27-29-.35-9.61-1.29-18.69-2.81-27.23-4.03,1.74-8.19,4.54-12.48,8.4-4.29,3.86-8.37,8.68-12.23,14.44-3.85,5.75-7.14,12.41-9.85,19.98-2.72,7.57-4.52,15.91-5.4,25-.89,9.08-.51,18.9,1.15,29.44Z"/>
  <path class="cls-1" d="M173.32,223.65c0-4.64,1.01-9.08,3.02-13.33,2.01-4.26,4.77-8.07,8.27-11.44,3.5-3.36,7.52-5.88,12.06-7.56-6.33-5.23-11.51-11.18-15.52-17.83-4.02-6.67-6.03-14.29-6.04-22.88-.02-2.97.46-6.04,1.44-9.21.98-3.17,2.34-6.1,4.06-8.81,1.73-2.72,3.66-4.9,5.77-6.54,2.13-1.64,4.38-2.46,6.75-2.46l96.48-.19c.89,1.58,1.58,3.2,2.08,4.83.5,1.63.75,3.43.75,5.4.01,3.75-.82,7.11-2.5,10.08-1.68,2.96-3.85,5.45-6.52,7.48-2.66,2.03-5.44,3.59-8.35,4.69-2.92,1.1-5.61,1.65-8.08,1.65-5.53.02-10.96-.91-16.29-2.77-5.33-1.88-10.5-4.19-15.5-6.94-5-2.76-9.85-5.5-14.54-8.21-4.7-2.71-9.22-4.99-13.56-6.85-4.35-1.88-8.5-2.8-12.46-2.79-.99,0-1.81.54-2.46,1.63-.64,1.08-.96,2.02-.96,2.81.01,3.46,1.5,6.49,4.46,9.1,2.97,2.61,6.98,4.98,12.02,7.1,5.05,2.11,10.69,4.2,16.92,6.27,6.23,2.06,12.71,4.34,19.42,6.85,6.72,2.5,13.2,5.43,19.44,8.77,6.23,3.33,11.88,7.3,16.92,11.9,5.04,4.58,9.05,10.01,12.02,16.27,2.98,6.27,4.48,13.65,4.5,22.15.03,9.68-2.2,18.43-6.69,26.25-4.47,7.81-11.23,13.99-20.27,18.56-9.03,4.55-20.46,6.9-34.29,7.02-7.81.01-15.42-1.04-22.83-3.15-7.41-2.11-14.08-5.3-20.02-9.58-5.93-4.28-10.66-9.63-14.17-16.04-3.52-6.42-5.29-13.82-5.31-22.23ZM277.84,249.67c-.02-4.14-1.68-7.98-5-11.54-3.31-3.55-7.76-6.96-13.35-10.21-5.58-3.25-11.74-6.57-18.46-9.96-6.72-3.4-13.57-7-20.54-10.79-6.97-3.79-13.52-8-19.65-12.63.09,3.27.98,7.17,2.67,11.71,1.69,4.54,4,9.33,6.92,14.38,2.93,5.03,6.34,9.94,10.25,14.73,3.92,4.78,8.2,9.14,12.85,13.08,4.65,3.93,9.5,7.06,14.54,9.38,5.04,2.31,10.18,3.45,15.42,3.44,4.34,0,7.82-1.16,10.44-3.48,2.61-2.33,3.92-5.03,3.92-8.1Z"/>
  <path class="cls-1" d="M363.47,284.88c-10.36-1.6-19.47-4.95-27.33-10.06-7.85-5.11-14.3-11.55-19.35-19.31-5.04-7.78-8.48-16.55-10.31-26.33-1.83-9.79-1.91-20.15-.23-31.08,1.68-10.93,4.86-20.78,9.56-29.54,4.69-8.78,10.61-16.11,17.77-22,7.17-5.9,15.26-10.1,24.29-12.6,9.03-2.5,18.72-2.95,29.08-1.35,9.38,1.45,17.36,3.47,23.96,6.08,6.59,2.61,11.95,5.31,16.06,8.1,4.11,2.78,7.11,5.12,9.02,7.02,1.92,1.89,2.88,2.83,2.88,2.83l-38.83,72.85-1.46-.21c.21-3.26.28-7.63.23-13.08-.06-5.46-.41-11.46-1.06-18-.64-6.54-1.63-13.11-2.96-19.73-1.32-6.61-3.09-12.76-5.31-18.44-2.22-5.69-4.99-10.42-8.31-14.17-3.32-3.76-7.28-6-11.88-6.71-4.97-.76-9.26.95-12.85,5.15-3.6,4.18-6,10.18-7.21,18-2,12.99-1.88,24.83.38,35.52,2.25,10.7,5.96,20.02,11.13,27.96,5.18,7.93,11.22,14.31,18.13,19.13,6.92,4.82,14.03,7.85,21.33,9.08,3.71.57,7.32.75,10.85.54,3.53-.21,6.66-.92,9.4-2.15,2.75-1.23,4.65-2.97,5.69-5.21.36,6.66-1.11,12.6-4.42,17.83-3.29,5.24-7.89,9.57-13.77,13.02-5.88,3.44-12.64,5.77-20.27,6.98-7.64,1.22-15.7,1.18-24.19-.13Z"/>
  <g class="cls-6">
    <g class="cls-3">
      <g class="cls-5">
        <path class="cls-4" d="M483.93,336.46c-4.63-2.36-12.61-4.46-17.36-4.06L24.07,106.68c-9.76-4.98-13.65-16.97-8.67-26.72,3.23-6.33,8.35-8.3,16.13-6.18,3.76,1.03,7.53,2.99,11.17,5.87l77.16,60.74c1.4.97,2.72,2.3,4.11,3.7,3.39,3.41,7.23,7.27,13.06,6.17l24.39-4.57c7.67-1.44,15.29,2.51,18.56,9.59l6.91,15.02c5.15,11.18,17.19,17.32,29.28,14.94l16.06-3.19c7.73-1.53,15.43,2.4,18.73,9.56l6.83,14.85c5.16,11.2,17.2,17.33,29.29,14.93l16.03-3.18c7.73-1.54,15.44,2.39,18.73,9.55l6.84,14.86c5.15,11.19,17.19,17.34,29.28,14.94l16.04-3.19c7.73-1.53,15.44,2.4,18.73,9.56l8.31,18.06c4.29,9.34,13.71,15.4,23.99,15.44l45.67.2c3.99,2.58,12.17,4.4,17.43,4.42,7.16.03,12.98-3.27,13-7.36s-5.78-7.44-12.95-7.46c-5.15-.02-13.11,1.67-17.21,4.14l-45.91-.2c-7.85-.04-15.04-4.67-18.32-11.8l-8.31-18.06c-4.52-9.81-15.06-15.19-25.66-13.08l-16.04,3.19c-9.23,1.83-18.42-2.86-22.35-11.41l-6.84-14.86c-4.52-9.81-15.07-15.18-25.66-13.08l-16.03,3.18c-9.23,1.83-18.43-2.85-22.36-11.4l-6.84-14.85c-4.52-9.81-15.06-15.19-25.65-13.09l-16.06,3.18c-9.22,1.83-18.42-2.86-22.35-11.4l-6.91-15.02c-4.46-9.7-14.92-15.1-25.41-13.14l-24.39,4.57c-2.45.46-4.43-1.39-7.46-4.43-1.53-1.54-3.11-3.13-4.83-4.32l-77-60.64c-4.32-3.39-8.83-5.75-13.41-6.99-10.67-2.9-18.75.34-23.36,9.38-6.55,12.84-1.43,28.62,11.41,35.17l442.49,225.72c2.46,4.09,8.85,9.32,13.48,11.68,6.38,3.26,13.06,2.94,14.92-.71,1.86-3.65-1.8-9.24-8.19-12.5Z"/>
      </g>
    </g>
  </g>
  <path class="cls-1" d="M172.17,222.46c.13-4.65,1.26-9.08,3.4-13.29,2.15-4.21,5.03-7.95,8.65-11.23,3.61-3.29,7.71-5.71,12.31-7.27-6.21-5.4-11.23-11.51-15.06-18.31-3.83-6.8-5.64-14.52-5.4-23.15.07-2.97.64-6.03,1.71-9.17,1.08-3.15,2.53-6.06,4.33-8.73,1.8-2.67,3.79-4.79,5.96-6.38,2.18-1.58,4.46-2.34,6.85-2.27l96.77,2.56c.84,1.61,1.49,3.24,1.94,4.9.46,1.64.66,3.45.6,5.44-.1,3.77-1.04,7.11-2.81,10.04-1.77,2.92-4.01,5.36-6.73,7.33-2.72,1.96-5.56,3.45-8.52,4.46-2.96,1.02-5.68,1.49-8.17,1.42-5.54-.14-10.96-1.22-16.25-3.25-5.29-2.04-10.41-4.51-15.35-7.42-4.93-2.9-9.72-5.78-14.35-8.63-4.63-2.86-9.1-5.28-13.42-7.27-4.31-2-8.44-3.05-12.4-3.17-.99-.01-1.82.52-2.5,1.58-.67,1.06-1.02,1.98-1.04,2.77-.08,3.47,1.32,6.56,4.21,9.27,2.9,2.7,6.84,5.18,11.83,7.46,5,2.27,10.59,4.52,16.79,6.77,6.19,2.25,12.63,4.73,19.29,7.44,6.68,2.71,13.09,5.83,19.25,9.38,6.15,3.53,11.69,7.66,16.63,12.4,4.93,4.74,8.8,10.29,11.6,16.67,2.8,6.38,4.09,13.83,3.88,22.35-.27,9.71-2.76,18.42-7.48,26.13-4.71,7.71-11.67,13.72-20.88,18.04-9.2,4.32-20.72,6.34-34.58,6.08-7.83-.21-15.45-1.48-22.83-3.81-7.38-2.33-13.97-5.73-19.79-10.21-5.82-4.47-10.41-9.97-13.75-16.5-3.35-6.53-4.91-14.01-4.69-22.44ZM276.25,251.56c.11-4.17-1.45-8.07-4.67-11.73-3.22-3.65-7.59-7.19-13.1-10.6-5.5-3.42-11.58-6.92-18.23-10.52-6.64-3.61-13.41-7.42-20.31-11.42-6.89-4-13.34-8.42-19.35-13.25.01,3.28.8,7.22,2.35,11.83,1.57,4.6,3.75,9.47,6.54,14.6,2.79,5.13,6.07,10.15,9.85,15.06,3.79,4.92,7.96,9.42,12.52,13.5,4.55,4.08,9.32,7.35,14.31,9.81,5,2.46,10.11,3.76,15.35,3.9,4.36.13,7.88-.94,10.56-3.19,2.69-2.26,4.08-4.93,4.17-8Z"/>
</svg>