<?xml version="1.0" encoding="UTF-8"?>
<svg id="Layer_2" data-name="Layer 2" xmlns="http://www.w3.org/2000/svg" viewBox="0 0 19.82 13.94">
  <defs>
    <style>
      .cls-1 {
        fill: #efe7db;
      }
    </style>
  </defs>
  <g id="Layer_1-2" data-name="Layer 1">
    <path class="cls-1" d="M19.82,12.43c-.06.18-.1.37-.19.54-.31.61-.82.92-1.5.96-.05,0-.1,0-.15,0-5.39,0-10.77,0-16.16,0-.86,0-1.55-.5-1.75-1.3-.04-.16-.06-.33-.06-.5C0,8.69,0,5.24,0,1.79,0,.75.76,0,1.8,0,7.21,0,12.61,0,18.01,0c.91,0,1.57.53,1.77,1.42,0,.03.02.06.03.09v10.92ZM2.03,1.17c.06.06.1.11.14.15,2.4,2.4,4.79,4.81,7.19,7.21.38.38.74.38,1.12,0,2.4-2.4,4.79-4.81,7.19-7.21.04-.04.08-.08.13-.14H2.03ZM2.02,12.76h15.79c-1.68-1.66-3.32-3.3-4.98-4.94-.04.04-.09.08-.14.13-.48.48-.96.97-1.45,1.45-.76.76-1.89.76-2.65,0-.29-.29-.58-.59-.87-.88-.24-.24-.48-.48-.71-.71-1.66,1.65-3.31,3.28-4.98,4.94ZM1.17,11.87c1.64-1.63,3.3-3.27,4.96-4.91-1.66-1.64-3.32-3.29-4.96-4.92v9.83ZM18.64,11.91V2.09c-1.63,1.61-3.29,3.25-4.96,4.9,1.65,1.64,3.31,3.28,4.96,4.92Z"/>
  </g>
</svg>