<svg id="Capa_1" data-name="Capa 1" xmlns="http://www.w3.org/2000/svg" xmlns:xlink="http://www.w3.org/1999/xlink" viewBox="0 0 267.01 487.96"><defs><style>.cls-1{fill:none;}.cls-2{clip-path:url(#clip-path);}.cls-3{fill:#670b1b;}.cls-4{clip-path:url(#clip-path-2);}.cls-5{fill:#f0e7db;}</style><clipPath id="clip-path"><polygon class="cls-1" points="564.21 488.17 286.17 482.73 286.17 7.36 564.21 7.36 564.21 488.17"/></clipPath><clipPath id="clip-path-2"><polygon class="cls-1" points="278.05 488.17 0 482.73 0 7.36 278.05 7.36 278.05 488.17"/></clipPath></defs><g class="cls-2"><path class="cls-3" d="M202.07,242.2c-7,2.68-14.25,2.85-20.71,3h-1c-1.28,0-2.62-.06-3.9-.06s-2.5-.12-3.72-.12H25.86c-.35-3.72-.64-7.5-.75-11.28H167.93c2.5,0,5,.06,7.44.11,5.47.06,11.11.12,16.64-.23,6.17-.35,9.13-2.62,10.53-8.09a8.66,8.66,0,0,0-3.32-9.77c-5.64-4.54-12.79-6.34-20.65-5.35a380.68,380.68,0,0,0-38.51,6.34c-9.72,2.27-19.49,5-29,7.68-6.63,1.86-13.21,3.72-19.9,5.47-3.2.81-7,0-9.54-.82-7-2.27-13.73-4.94-18.79-7-2.33-.93-4-1-5.82-.11-3.66,1.68-7.33,3.2-11,4.65-2.21.93-4.42,1.81-6.57,2.74a13.53,13.53,0,0,1-9.89.46c-1.51-.52-3-1-4.66-1.45-.05-2.16-.05-4.31-.05-6.46,0-1.92,0-3.9.05-5.82,2.39.82,4.83,1.51,7.22,2.21a8.45,8.45,0,0,0,5.06.12C43.2,216,49,213.29,54.37,210.67a11.73,11.73,0,0,1,10.24-.29c6.22,2.62,13.14,5.24,21.11,7.91a7.94,7.94,0,0,0,4.66-.12l1.34-.34c21.93-6.4,44.62-13,67.6-17.05,11.28-2,23.27-3.72,35.07-.29,10.71,3.08,17.11,9,19.61,18.15A19.68,19.68,0,0,1,202.07,242.2Z"/><path class="cls-3" d="M224,270.12c-3.55,5.94-8,9.72-13.62,11.7a6.42,6.42,0,0,0-2.44,1.63Q150.47,340.78,93.17,398.11c-2.5-2.79-5-5.64-7.45-8.55L204.23,271.11c3.08-3.14,6.34-6.34,9.77-9.25,3.66-3.14,7.45-3.49,10.12-1C227.55,264.07,225.17,268,224,270.12Z"/><path class="cls-3" d="M223,174.19a3.86,3.86,0,0,1-2,.53,8.33,8.33,0,0,1-4.3-1.4c-4.89-3.43-8.09-8.55-9.78-15.47a17.89,17.89,0,0,0-2.27-5.94l-3-4.3c-7-9.89-14.25-20.13-21.93-29.79-1.86-2.38-4.83-4.07-7.92-5.87-1-.64-2.09-1.28-3.08-1.86a65.77,65.77,0,0,0-8.43-4.43c-4.66-2.15-7-6.16-9.08-9.71l-.7-1.11a37,37,0,0,1-3.66-7.27c-1.34-4.07-4.07-6.63-8.79-8.2-2.5-.87-4.88-1.92-7.33-3-1.8-.81-3.66-1.63-5.52-2.32-3.26-1.23-5.59-3.49-7.39-7.1l-1-2.15c-2.38-4.95-4.94-10.07-7.62-14.95a8.62,8.62,0,0,0-3.55-3.67c-3.08-1.4-6.22-2.62-9.36-3.78,2.73-2.91,5.52-5.76,8.43-8.49.18.05.29.11.47.17l6.63,2.79A13.15,13.15,0,0,1,119,43.53c2.85,5.47,6,11.29,10,18.15A6.35,6.35,0,0,0,131.57,64c3,1.4,6.05,2.74,9.07,4.08s6.28,2.73,9.43,4.18a10,10,0,0,1,4.07,4c1.39,2.62,2.73,5.23,4.07,7.85,1.51,2.91,3,5.82,4.6,8.73a7.79,7.79,0,0,0,2.67,2.38c4.42,2.5,8.73,5,13.09,7,7.51,3.61,12,10,16.29,16.06l.93,1.28c9.48,13.32,17.92,25.54,25.83,37.52,2,3,2.85,6.63,3.72,10.07l.18.81A6.54,6.54,0,0,1,223,174.19Z"/><path class="cls-3" d="M237.62,291.36c-3.43,4.89-8.49,8.09-15.48,9.77a18.83,18.83,0,0,0-5.93,2.27l-4.19,3c-10,7-20.18,14.31-29.9,22-2.33,1.86-4.07,4.77-5.88,7.91-.58,1.05-1.22,2.09-1.86,3.08a71.29,71.29,0,0,0-4.42,8.44c-2.09,4.65-6.11,7-9.66,9.07l-1.16.7a39,39,0,0,1-7.21,3.67c-4.07,1.33-6.63,4.07-8.26,8.78-.88,2.5-1.92,4.89-3,7.33-.76,1.8-1.57,3.67-2.27,5.53-1.22,3.26-3.49,5.58-7.1,7.39l-2.15,1c-4.94,2.39-10.12,4.95-15,7.62a9,9,0,0,0-3.66,3.55c-1.4,3.09-2.62,6.23-3.78,9.37-2.91-2.74-5.71-5.53-8.5-8.38.06-.17.18-.41.23-.58.94-2.15,1.87-4.36,2.74-6.57a13.37,13.37,0,0,1,6.63-7.28c5.47-2.85,11.29-6,18.21-10a7.07,7.07,0,0,0,2.27-2.56c1.39-3,2.67-6.05,4-9.08s2.79-6.28,4.25-9.42a9.34,9.34,0,0,1,4-4.07c2.56-1.4,5.18-2.74,7.8-4.08,3-1.51,5.87-3,8.73-4.59a6.94,6.94,0,0,0,2.38-2.68c2.56-4.36,5-8.67,7.1-13.09,3.6-7.5,9.89-12,16-16.29l1.33-.93c13.27-9.48,25.54-17.91,37.47-25.83,3-2,6.63-2.91,10.12-3.72l.82-.17a6.41,6.41,0,0,1,6.16,2.56C239.83,287.05,238.49,290.14,237.62,291.36Z"/><path class="cls-3" d="M247.16,159.83c-3.2,3.43-7.16,1-9.25-.24-5.93-3.49-9.72-8-11.69-13.61a6.46,6.46,0,0,0-1.63-2.44Q167.35,86.21,110,28.87c2.8-2.56,5.59-5,8.5-7.44l118.44,118.5c3.14,3.08,6.34,6.28,9.25,9.72C249.31,153.31,249.66,157.15,247.16,159.83Z"/><path class="cls-3" d="M289.86,417.66a8.07,8.07,0,0,0-.12,4.65c2.68,8,5.24,14.83,7.92,21.12a11.73,11.73,0,0,1-.3,10.24c-2.61,5.35-5.35,11.17-7.67,17.22a8.36,8.36,0,0,0,.11,5.06c.7,2.38,1.4,4.83,2.21,7.21-1.92.06-3.9.06-5.82.06-2.15,0-4.3,0-6.45-.06-.47-1.63-.93-3.14-1.46-4.65a13.54,13.54,0,0,1,.47-9.89c.93-2.16,1.8-4.37,2.67-6.58,1.52-3.72,3-7.38,4.72-11.05.87-1.86.81-3.49-.12-5.82-2.09-5.06-4.77-11.81-7-18.79-.81-2.62-1.63-6.34-.81-9.54,1.74-6.69,3.6-13.26,5.47-19.89,2.67-9.49,5.41-19.26,7.67-29,2.74-11.86,4.54-24,6.35-38.51,1-7.85-.88-15-5.36-20.65a8.65,8.65,0,0,0-9.77-3.31c-5.47,1.39-7.74,4.36-8.14,10.52-.35,5.47-.24,11.17-.18,16.64.06,2.45.12,4.95.12,7.45V482.93c-3.78-.12-7.57-.41-11.29-.76V335.34c0-1.22-.06-2.5-.12-3.72-.05-1.63-.11-3.26-.05-4.95.11-6.46.29-13.73,3-20.71A19.71,19.71,0,0,1,289.39,294c9.14,2.51,15.07,8.91,18.15,19.61,3.44,11.81,1.75,23.79-.29,35.08-4.07,23-10.64,45.67-17,67.6Z"/><path class="cls-3" d="M307.54,130.1c-3.08,10.64-9,17.1-18.15,19.6a19.24,19.24,0,0,1-5.17.7,19.89,19.89,0,0,1-18.39-12.68c-2.67-6.92-2.85-14.25-3-20.71-.06-1.63,0-3.26.05-5,.06-1.22.12-2.44.12-3.72V-38.43c3.72-.35,7.51-.64,11.29-.76V103.57c0,2.5-.06,5-.12,7.51-.06,5.46-.17,11.11.18,16.57.4,6.17,2.67,9.14,8.14,10.53a8.64,8.64,0,0,0,9.77-3.25c4.48-5.7,6.34-12.86,5.36-20.71a380.29,380.29,0,0,0-6.35-38.52c-2.26-9.71-5-19.48-7.67-29-1.87-6.57-3.73-13.2-5.47-19.83-.82-3.26,0-7,.81-9.54,2.27-7,4.95-13.73,7-18.85.93-2.33,1-3.9.12-5.82-1.69-3.61-3.2-7.33-4.72-11-.87-2.21-1.74-4.37-2.67-6.58a13.38,13.38,0,0,1-.47-9.83c.53-1.51,1-3.08,1.46-4.65,2.15-.06,4.3-.06,6.45-.06,1.92,0,3.9,0,5.82.06-.81,2.38-1.51,4.77-2.21,7.15a8.56,8.56,0,0,0-.11,5.12c2.32,6,5.17,12.1,7.67,17.22a11.6,11.6,0,0,1,.3,10.18c-2.62,6.28-5.24,13.15-7.92,21.12a8.07,8.07,0,0,0,.12,4.65l.35,1.4c6.4,21.93,13,44.62,17,67.54C309.29,106.25,311,118.29,307.54,130.1Z"/></g><g class="cls-4"><path class="cls-5" d="M3.69,417.66a8,8,0,0,0-.11,4.65c2.67,8,5.23,14.83,7.91,21.12a11.73,11.73,0,0,1-.29,10.24C8.58,459,5.85,464.84,3.52,470.89A8.3,8.3,0,0,0,3.64,476c.69,2.38,1.39,4.83,2.21,7.21-1.92.06-3.9.06-5.82.06-2.15,0-4.31,0-6.46-.06-.46-1.63-.93-3.14-1.45-4.65a13.54,13.54,0,0,1,.46-9.89c.93-2.16,1.81-4.37,2.68-6.58,1.51-3.72,3-7.38,4.71-11.05.87-1.86.82-3.49-.12-5.82-2.09-5.06-4.77-11.81-7-18.79C-8,423.76-8.81,420-8,416.84c1.75-6.69,3.61-13.26,5.47-19.89,2.68-9.49,5.41-19.26,7.68-29a374.21,374.21,0,0,0,6.34-38.51c1-7.85-.87-15-5.35-20.65a8.66,8.66,0,0,0-9.78-3.31c-5.46,1.39-7.73,4.36-8.14,10.52-.35,5.47-.23,11.17-.18,16.64.06,2.45.12,4.95.12,7.45V482.93c-3.78-.12-7.56-.41-11.28-.76V335.34c0-1.22-.06-2.5-.12-3.72-.06-1.63-.12-3.26-.06-4.95.12-6.46.29-13.73,3-20.71A19.7,19.7,0,0,1,3.23,294c9.13,2.51,15.07,8.91,18.15,19.61,3.43,11.81,1.74,23.79-.29,35.08-4.07,23-10.65,45.67-17,67.6Z"/><path class="cls-5" d="M21.38,130.1c-3.08,10.64-9,17.1-18.15,19.6a19.31,19.31,0,0,1-5.18.7,19.87,19.87,0,0,1-18.38-12.68c-2.68-6.92-2.85-14.25-3-20.71-.06-1.63,0-3.26.06-5,.06-1.22.12-2.44.12-3.72V-38.43c3.72-.35,7.5-.64,11.28-.76V103.57c0,2.5-.06,5-.12,7.51,0,5.46-.17,11.11.18,16.57.41,6.17,2.68,9.14,8.14,10.53a8.65,8.65,0,0,0,9.78-3.25c4.48-5.7,6.34-12.86,5.35-20.71A380.43,380.43,0,0,0,5.15,75.7c-2.27-9.71-5-19.48-7.68-29C-4.39,40.16-6.25,33.53-8,26.9c-.81-3.26,0-7,.82-9.54,2.26-7,4.94-13.73,7-18.85.94-2.33,1-3.9.12-5.82-1.69-3.61-3.2-7.33-4.71-11-.87-2.21-1.75-4.37-2.68-6.58a13.38,13.38,0,0,1-.46-9.83c.52-1.51,1-3.08,1.45-4.65,2.15-.06,4.31-.06,6.46-.06,1.92,0,3.9,0,5.82.06C5-37,4.33-34.65,3.64-32.27a8.49,8.49,0,0,0-.12,5.12C5.85-21.1,8.7-15,11.2-9.93A11.6,11.6,0,0,1,11.49.25C8.87,6.53,6.25,13.4,3.58,21.37A8,8,0,0,0,3.69,26L4,27.42C10.44,49.35,17,72,21.09,95,23.12,106.25,24.81,118.29,21.38,130.1Z"/><path class="cls-5" d="M176.24,28.87,61.58,143.54A6.92,6.92,0,0,0,60,146,24.65,24.65,0,0,1,48.78,159.3c-2.56,1.57-6.52,4-9.77.53-2.51-2.68-2.16-6.46,1-10.18,2.9-3.44,6.16-6.64,9.24-9.72L167.69,21.49C170.6,23.87,173.45,26.37,176.24,28.87Z"/><path class="cls-5" d="M188,403.4c-2.79,2.91-5.64,5.7-8.55,8.44-1.11-3.08-2.38-6.28-3.78-9.37a8.62,8.62,0,0,0-3.67-3.55c-4.88-2.67-10-5.23-15-7.62l-2.21-1c-3.55-1.81-5.82-4.13-7-7.39-.7-1.86-1.51-3.73-2.32-5.53-1.05-2.44-2.1-4.83-3-7.33-1.57-4.71-4.13-7.45-8.2-8.78a34.47,34.47,0,0,1-6.87-3.44l-1.51-.93c-3.55-2-7.62-4.42-9.72-9.07a73,73,0,0,0-4.36-8.44c-.7-1-1.28-2-1.92-3.08-1.8-3.08-3.49-6-5.87-7.91-9.66-7.68-20-15-30-22.05L70,303.4A18.43,18.43,0,0,0,64,301.13c-6.92-1.68-12-4.88-15.47-9.77-.82-1.22-2.16-4.31-.88-6.34a6.56,6.56,0,0,1,6.17-2.5l.82.17c3.49.81,7.09,1.69,10.12,3.72C76.7,294.27,89,302.7,102.3,312.24l1.28.93c6.11,4.31,12.45,8.79,16.06,16.29,2,4.37,4.53,8.67,7,13.09a7.83,7.83,0,0,0,2.38,2.68c2.91,1.57,5.82,3.08,8.73,4.59,2.61,1.34,5.23,2.68,7.85,4.08a9.92,9.92,0,0,1,4,4.07c1.46,3.08,2.8,6.28,4.19,9.42s2.68,6.05,4.08,9.08a6.47,6.47,0,0,0,2.26,2.56c6.87,4,12.69,7.15,18.15,10a13,13,0,0,1,6.64,7.28c.93,2.21,1.86,4.36,2.79,6.57A2.36,2.36,0,0,0,188,403.4Z"/><path class="cls-5" d="M190,42.43c-3.08,1.16-6.23,2.38-9.37,3.78a8.53,8.53,0,0,0-3.49,3.67c-2.73,4.88-5.23,10.06-7.68,15.06l-1,2a13,13,0,0,1-7.39,7.1c-1.86.69-3.67,1.51-5.53,2.32-2.38,1-4.83,2.1-7.27,3-4.71,1.57-7.45,4.13-8.84,8.2a35.5,35.5,0,0,1-3.43,6.93L135.05,96c-2.09,3.55-4.42,7.56-9.07,9.71a69.67,69.67,0,0,0-8.44,4.37c-1,.64-2,1.28-3.14,1.92-3.08,1.8-6,3.49-7.91,5.87-7.62,9.6-14.84,19.84-21.82,29.73l-3.14,4.36a18.34,18.34,0,0,0-2.27,5.94c-1.68,6.92-4.88,12-9.77,15.47a8.14,8.14,0,0,1-4.25,1.4,3.91,3.91,0,0,1-2-.53A6.58,6.58,0,0,1,60.65,168l.23-.87c.81-3.49,1.69-7,3.66-10.07,7.92-12,16.35-24.2,25.83-37.52l.94-1.28c4.36-6.11,8.84-12.45,16.34-16.06,4.37-2.09,8.67-4.54,13-7a7.39,7.39,0,0,0,2.68-2.38C125,89.9,126.5,87,128,84c1.34-2.56,2.68-5.17,4.08-7.79a10,10,0,0,1,4.07-4Q140.78,70,145.58,68c3-1.34,6-2.68,9.08-4.08a6.18,6.18,0,0,0,2.5-2.27c4-6.86,7.21-12.68,10-18.15a13.28,13.28,0,0,1,7.27-6.63l6.63-2.79c.17-.06.29-.12.46-.17C184.44,36.67,187.24,39.52,190,42.43Z"/><path class="cls-5" d="M200.38,389.56c-2.38,2.91-4.83,5.7-7.39,8.49q-57.33-57.33-114.66-114.6a6.83,6.83,0,0,0-2.44-1.63,25,25,0,0,1-13.38-11.23c-1.51-2.56-3.9-6.52-.47-9.71,2.68-2.51,6.46-2.16,10.18,1,3.44,2.91,6.64,6.11,9.78,9.25l1.39,1.4Q123.71,312.83,164,353.2Z"/><path class="cls-5" d="M86.94,215.73a8.74,8.74,0,0,0-3.31,9.77c1.45,5.47,4.42,7.74,10.58,8.09,5.47.35,11.12.29,16.58.23,2.51,0,5-.11,7.51-.11H261.06c-.12,3.78-.41,7.56-.76,11.28H113.47c-1.22,0-2.44.06-3.66.12s-2.62.06-4,.06h-1c-6.46-.12-13.79-.29-20.71-3a19.72,19.72,0,0,1-12-23.56c2.5-9.13,9-15.07,19.6-18.15,11.81-3.43,23.85-1.75,35.14.29,22.92,4.07,45.61,10.65,67.54,17.05l1.4.34a7.9,7.9,0,0,0,4.65.12c7.91-2.67,14.83-5.29,21.06-7.91a11.72,11.72,0,0,1,10.24.29c5.41,2.62,11.23,5.35,17.22,7.68a8.65,8.65,0,0,0,5.12-.12c2.38-.64,4.77-1.39,7.15-2.21.06,1.92.06,3.9.06,5.82,0,2.15,0,4.3-.06,6.46-1.57.46-3.14,1-4.65,1.45a13.38,13.38,0,0,1-9.83-.46c-2.21-.93-4.42-1.81-6.58-2.74-3.72-1.45-7.44-3-11-4.65a6.79,6.79,0,0,0-5.82.11c-5.12,2.1-11.87,4.77-18.85,7-2.56.82-6.34,1.63-9.54.82-6.63-1.75-13.26-3.61-19.83-5.47-9.49-2.68-19.26-5.41-29-7.68a379.74,379.74,0,0,0-38.51-6.34C99.8,209.39,92.64,211.19,86.94,215.73Z"/></g></svg>