<svg id="Capa_1" data-name="Capa 1" xmlns="http://www.w3.org/2000/svg" viewBox="0 0 33.86 33.85"><defs><style>.cls-1{fill:#f0e7db;}</style></defs><path class="cls-1" d="M32.46,15.83V18l-.06.26c-.08.62-.13,1.25-.27,1.85A15.4,15.4,0,0,1,23.43,31c-.7.33-1.44.57-2.2.86V20.34h3.33l.5-3.85H21.27a.41.41,0,0,1-.05-.11c0-1,0-2,0-2.94a1.24,1.24,0,0,1,1.09-1.24,7.21,7.21,0,0,1,1.23-.1c.52,0,1.05,0,1.59,0V8.67A.61.61,0,0,0,25,8.62c-1,0-2.07-.11-3.11-.11a4.84,4.84,0,0,0-2.14.5,4.51,4.51,0,0,0-2.5,4.07c-.06,1,0,2,0,3.06,0,.11,0,.21,0,.35H13.9v3.87h3.3V32.45a13.75,13.75,0,0,1-3.52-.33,15.24,15.24,0,0,1-9-5.62A15.18,15.18,0,0,1,1.55,14.76,14.87,14.87,0,0,1,5.1,6.87a15.27,15.27,0,0,1,9.13-5.24c.52-.09,1-.16,1.55-.23H18l1.08.13A15.58,15.58,0,0,1,32.22,14.19C32.32,14.74,32.38,15.29,32.46,15.83Z"/></svg>