<?xml version="1.0" encoding="UTF-8"?>
<svg id="Layer_2" data-name="Layer 2" xmlns="http://www.w3.org/2000/svg" viewBox="0 0 12.35 21.47">
  <defs>
    <style>
      .cls-1 {
        fill: #efe7db;
      }
    </style>
  </defs>
  <g id="Layer_1-2" data-name="Layer 1">
    <g>
      <path class="cls-1" d="M0,10.73c0-2.64,0-5.27,0-7.91C0,1.56.61.54,1.59.15,1.84.06,2.11,0,2.37,0,4.91,0,7.44,0,9.97,0c1.35,0,2.37,1.2,2.37,2.79,0,5.3,0,10.6,0,15.9,0,1.58-1.02,2.77-2.36,2.78-2.54,0-5.08,0-7.62,0-1.35,0-2.36-1.21-2.36-2.8,0-2.65,0-5.29,0-7.94ZM1.28,10.74c0,2.63,0,5.26,0,7.89,0,.83.44,1.34,1.14,1.35,2.5,0,5,0,7.5,0,.12,0,.24,0,.35-.04.51-.16.79-.64.79-1.34,0-5.23,0-10.46,0-15.68,0-.06,0-.12,0-.19-.04-.71-.47-1.2-1.08-1.21-.19,0-.39-.02-.58,0-.07,0-.16.08-.2.15-.1.18-.16.38-.25.56-.16.32-.39.51-.71.52-1.38,0-2.75,0-4.13,0-.33,0-.57-.19-.72-.53-.09-.19-.16-.38-.24-.56-.03-.06-.08-.14-.11-.14-.35.01-.71-.02-1.05.07-.46.13-.71.64-.71,1.29,0,2.62,0,5.24,0,7.87Z"/>
      <path class="cls-1" d="M6.17,18.47c-.28,0-.56,0-.84,0-.37,0-.64-.32-.65-.73,0-.41.25-.75.62-.76.58-.02,1.16-.02,1.73,0,.37.01.62.35.62.76,0,.41-.27.71-.65.73-.01,0-.03,0-.04,0-.27,0-.53,0-.8,0Z"/>
    </g>
  </g>
</svg>