<?xml version="1.0" encoding="UTF-8"?>
<svg id="Layer_2" data-name="Layer 2" xmlns="http://www.w3.org/2000/svg" viewBox="0 0 15.44 21.95">
  <defs>
    <style>
      .cls-1 {
        fill: #efe7db;
      }
    </style>
  </defs>
  <g id="Layer_1-2" data-name="Layer 1">
    <g>
      <path class="cls-1" d="M7.55,21.95c-.17-.16-.36-.3-.49-.48-1.3-1.85-2.6-3.69-3.86-5.56-1.04-1.55-1.95-3.17-2.58-4.94C.23,9.86-.02,8.73,0,7.55.05,4.24,2.33,1.25,5.51.32c4.22-1.24,8.56,1.22,9.68,5.47.43,1.62.26,3.21-.24,4.79-.55,1.72-1.38,3.3-2.37,4.8-1.15,1.74-2.36,3.44-3.54,5.15-.21.31-.42.63-.65.93-.14.18-.33.32-.49.48h-.34ZM7.71,20.15s.06-.06.07-.09c1.18-1.71,2.39-3.4,3.55-5.13.98-1.46,1.82-3,2.37-4.69.42-1.28.6-2.57.3-3.9C13.08,2.3,8.81.17,5.01,1.88,2.45,3.03.92,5.89,1.36,8.67c.19,1.19.59,2.3,1.11,3.38.85,1.78,1.95,3.42,3.08,5.04.71,1.02,1.44,2.03,2.17,3.06Z"/>
      <path class="cls-1" d="M7.74,3.86c2.12,0,3.85,1.75,3.84,3.88,0,2.12-1.75,3.85-3.88,3.84-2.12,0-3.85-1.75-3.84-3.88,0-2.12,1.75-3.85,3.88-3.84ZM7.72,5.14c-1.42,0-2.57,1.16-2.57,2.58,0,1.41,1.16,2.56,2.56,2.57,1.42,0,2.58-1.15,2.58-2.57,0-1.42-1.16-2.58-2.57-2.58Z"/>
    </g>
  </g>
</svg>