<svg id="Capa_1" data-name="Capa 1" xmlns="http://www.w3.org/2000/svg" viewBox="0 0 32.66 33.39"><defs><style>.cls-1{fill:#f0e7db;}</style></defs><path class="cls-1" d="M30.53,1.16l-3.38,4-7.83,9.1-.07.1L31.53,32.19l-.26,0H22.72a.42.42,0,0,1-.39-.21L14.39,20.45l-.2-.27L12.88,21.7q-4.4,5.11-8.79,10.24a.77.77,0,0,1-.65.29c-.74,0-1.48,0-2.3,0L13,18.43l-2.3-3.35L1.31,1.42c-.05-.08-.09-.17-.14-.26h9l.08.13Q14.1,6.83,17.9,12.37l.15.18.29-.33L27,2.21c.3-.34.57-.7.85-1Zm-2.7,29.12-.09-.16L9,3.39a.56.56,0,0,0-.4-.2H5.09l-.26,0,.22.33L12.36,14Q18,22,23.57,30a.52.52,0,0,0,.49.25h3.77Z"/></svg>